<svg id="bg" xmlns="http://www.w3.org/2000/svg" xmlns:xlink="http://www.w3.org/1999/xlink" width="1920" height="1000" 
style="background-color: #2b1165;" viewBox="0 0 1920 1000">
  <defs>
    <linearGradient id="linear-gradient" x1="0.5" x2="0.5" y2="1" gradientUnits="objectBoundingBox">
      <stop offset="0"/>
      <stop offset="0.1" stop-color="#0072F4"/>
    </linearGradient>
    <linearGradient id="linear-gradient-2" x1="0.5" x2="0.5" y2="0.699" gradientUnits="objectBoundingBox">
      <stop offset="0.001" stop-color="#F5FF6E"/>
      <stop offset="0.954" stop-color="#FF44A5" stop-opacity="0.999"/>
    </linearGradient>
    <linearGradient id="linear-gradient-3" x1="0.5" x2="0.5" y1="0.1" y2="0.95" gradientUnits="objectBoundingBox">
      <stop offset="0.001" stop-color="#000000" stop-opacity="0.9"/>
      <stop offset="0.2" stop-color="#2B00FF" stop-opacity="1"/>
      <stop offset="0.3" stop-color="#2B00FF" stop-opacity="0.9"/>
      <stop offset="0.2" stop-color="#FFFFFF" stop-opacity="1"/>
      <stop offset="0.5" stop-color="#000000" stop-opacity="0.4"/>
      <stop offset="0.6" stop-color="#000000" stop-opacity="1"/>
      <stop offset="0.8" stop-color="#F200FF" stop-opacity="0.8"/>
      <stop offset="1" stop-color="#FFFFFF" stop-opacity="0.9"/>
    </linearGradient>
    <linearGradient id="linear-gradient-4" x1="0.1" x2="2.5" y2="0.99" gradientUnits="objectBoundingBox">
      <stop offset="0"/>
      <stop offset="0.3" stop-color="#1EF0FF"/>
    </linearGradient>
    <linearGradient id="linear-gradient-5" x1="0.1" x2="2.5" y2="0.99" gradientUnits="objectBoundingBox">
      <stop offset="0"/>
      <stop offset="0.3" stop-color="#F200FF"/>
    </linearGradient>
  </defs>
  <!--<rect id="Rectangle_1" data-name="Rectangle 1" width="1920" height="579" fill="url(#linear-gradient)"/>fill="url(#linear-gradient-2)"-->
  <circle id="Ellipse_1" data-name="Ellipse 1" cx="0" cy="98" r="238" transform="translate(1038 215)" fill="url(#linear-gradient-2)"
  style="filter: drop-shadow(0 0 58px #F00090); overflow: visible;"
  />
  <g id="Group_1" data-name="Group 1" opacity="0.95" fill="#2b1165" style="filter: drop-shadow(0 0 98px #F00090); overflow: visible;">
    <rect id="Rectangle_2-1" data-name="Rectangle 2" width="476" height="5" transform="translate(800 315)"/>
    <rect id="Rectangle_2-2" data-name="Rectangle 2" width="470" height="7" transform="translate(803 350)"/>
    <rect id="Rectangle_2-3" data-name="Rectangle 2" width="446" height="9" transform="translate(815 395)"/>
    <rect id="Rectangle_2-4" data-name="Rectangle 2" width="402" height="11" transform="translate(837 440)"/>
    <rect id="Rectangle_2-5" data-name="Rectangle 2" width="324" height="14" transform="translate(876 485)"/>
  </g>
  <g id="mountains" data-name="Group 2" opacity="1" fill="#2b1165" style="filter: drop-shadow(0 0 98px #F200FF); overflow: visible;">
    <polygon id="Triangle-2" points="5,135 45,-25 225,135" fill="#0C174C" stroke="#D67BF3" stroke-width="4" transform="translate(105 485)"/>
    <polygon id="Triangle-1" points="5,135 115,-85 225,135" fill="#0C174C" stroke="#D67BF3" stroke-width="4" transform="translate(-40 495)"/>
    <polygon id="Triangle-3" points="5,135 145,5 345,135" fill="#0C174C" stroke="#D67BF3" stroke-width="4" transform="translate(130 495)"/>
    <polygon id="Triangle-5" points="5,135 115,-35 225,135" fill="#0C174C" stroke="#D67BF3" stroke-width="4" transform="translate(350 495)"/>
    <polygon id="Triangle-4" points="-15,135 115,-95 245,135" fill="#0C174C" stroke="#D67BF3" stroke-width="4" transform="translate(260 495)"/>
    <polygon id="Triangle-7" points="-45,135 125,-85 285,135" fill="#0C174C" stroke="#D67BF3" stroke-width="4" transform="translate(510 495)"/>
    <polygon id="Triangle-6" points="5,135 115,-115 225,135" fill="#0C174C" stroke="#D67BF3" stroke-width="4" transform="translate(430 495)"/>
    <polygon id="Triangle-9" points="-45,135 125,-65 225,135" fill="#0C174C" stroke="#D67BF3" stroke-width="4" transform="translate(800 495)"/>
    <polygon id="Triangle-12" points="19,135 145,-65 245,135" fill="#0C174C" stroke="#D67BF3" stroke-width="4" transform="translate(1089 495)"/>
    <polygon id="Triangle-11" points="5,135 115,-95 225,135" fill="#0C174C" stroke="#D67BF3" stroke-width="4" transform="translate(1000 495)"/>
    <polygon id="Triangle-10" points="5,135 165,-15 305,135" fill="#0C174C" stroke="#D67BF3" stroke-width="4" transform="translate(850 495)"/>
    <polygon id="Triangle-8" points="-25,135 155,-195 335,135" fill="#0C174C" stroke="#D67BF3" stroke-width="4" transform="translate(600 495)"/>
    <polygon id="Triangle-14" points="-15,135 145,-95 255,135" fill="#0C174C" stroke="#D67BF3" stroke-width="4" transform="translate(1310 495)"/>
    <polygon id="Triangle-13" points="35,135 125,-65 285,135" fill="#0C174C" stroke="#D67BF3" stroke-width="4" transform="translate(1180 495)"/>
    <polygon id="Triangle-16" points="-25,135 145,-125 275,135" fill="#0C174C" stroke="#D67BF3" stroke-width="4" transform="translate(1510 495)"/>
    <polygon id="Triangle-15" points="-25,135 175,-85 365,135" fill="#0C174C" stroke="#D67BF3" stroke-width="4" transform="translate(1370 495)"/>
    <polygon id="Triangle-18" points="-5,135 135,-45 295,135" fill="#0C174C" stroke="#D67BF3" stroke-width="4" transform="translate(1720 495)"/>
    <polygon id="Triangle-17" points="15,135 105,-35 295,135" fill="#0C174C" stroke="#D67BF3" stroke-width="4" transform="translate(1630 495)"/>
  </g>

  <rect id="Rectangle_3" data-name="Rectangle 3" width="1920" height="53" transform="translate(0 618)" fill="#F7CCFF"
  style="filter: drop-shadow(0 0 18px #D67BF3) blur(8px); overflow: visible;"/>
</svg>
