<svg id="bg" xmlns="http://www.w3.org/2000/svg" xmlns:xlink="http://www.w3.org/1999/xlink" width="1920" height="664" viewBox="0 0 1920 664">
  <defs>
    <style type="text/css">
      @import url('https://fonts.googleapis.com/css?family=Bebas+Neue');
    </style>
    <linearGradient id="linear-gradient" x1="0.5" x2="0.5" y2="1" gradientUnits="objectBoundingBox">
      <stop offset="0"/>
      <stop offset="0.9" stop-color="#0072F4"/>
    </linearGradient>
    <linearGradient id="linear-gradient-2" x1="0.5" x2="0.5" y2="0.699" gradientUnits="objectBoundingBox">
      <stop offset="0.2" stop-color="#FF00BB"/>
      <stop offset="0.824" stop-color="#F40082" stop-opacity="0.399"/>
      <stop offset="1" stop-color="#E800F4" stop-opacity="0.55"/>
    </linearGradient>
  </defs>
  <rect id="Rectangle_1" data-name="Rectangle 1" width="1920" height="579" fill="url(#linear-gradient)"/>
  <circle id="Ellipse_1" data-name="Ellipse 1" cx="0" cy="178" r="238" transform="translate(1038 175)" fill="url(#linear-gradient-2)"/>
  <path id="Path_2" data-name="Path 2" d="M1918.223,437.065,1842.9,388.033l-83.321,8.108-86.758-37.574L1525.332,405.8l-120.97-35.849-93.306,26.191-104.765-57.293-109.676,31.1-96.744-44.121L857.808,369.95l-50.651-31.1-71.893,57.293-129.9-57.293L492.582,388.033l-80.21-18.083-111.73,67.115L230.67,396.141l-55.82,40.924L70.249,405.8,0,453.435V558.2H1918.223Z" transform="translate(1.777 1)" fill="#22074A"/>
  <path id="Path_1" data-name="Path 1" d="M0,473.078l65.478-36.013,32.575,26.191L207.892,405.8l60.567,47.635,42.4-16.369,50.909,36.013L482.9,396.141l58.93,40.924L718.62,311.02l62.2,47.471L928.149,253.727l134.23,116.223,50.745-31.1,72.026,57.293,86.758-57.293,121.134,84.958,76.937-53.856,39.287,35.849,42.376-35.849,68.937,67.115,49.382-39.924,66.752,75.937,80.3-60.567,104.765,40.924V558.2H0Z" transform="translate(0 62)" fill="#120427"/>
  <g id="Group_1" data-name="Group 1" opacity="0.07">
    <rect id="Rectangle_2" data-name="Rectangle 2" width="1922" height="6"/>
    <rect id="Rectangle_2-2" data-name="Rectangle 2" width="1922" height="6" transform="translate(0 14)"/>
    <rect id="Rectangle_2-3" data-name="Rectangle 2" width="1922" height="6" transform="translate(0 28)"/>
    <rect id="Rectangle_2-4" data-name="Rectangle 2" width="1922" height="6" transform="translate(0 42)"/>
    <rect id="Rectangle_2-5" data-name="Rectangle 2" width="1922" height="6" transform="translate(0 56)"/>
    <rect id="Rectangle_2-6" data-name="Rectangle 2" width="1922" height="6" transform="translate(0 70)"/>
    <rect id="Rectangle_2-7" data-name="Rectangle 2" width="1922" height="6" transform="translate(0 84)"/>
    <rect id="Rectangle_2-8" data-name="Rectangle 2" width="1922" height="6" transform="translate(0 98)"/>
    <rect id="Rectangle_2-9" data-name="Rectangle 2" width="1922" height="6" transform="translate(0 112)"/>
    <rect id="Rectangle_2-10" data-name="Rectangle 2" width="1922" height="6" transform="translate(0 126)"/>
    <rect id="Rectangle_2-11" data-name="Rectangle 2" width="1922" height="6" transform="translate(0 140)"/>
    <rect id="Rectangle_2-12" data-name="Rectangle 2" width="1922" height="6" transform="translate(0 154)"/>
    <rect id="Rectangle_2-13" data-name="Rectangle 2" width="1922" height="6" transform="translate(0 168)"/>
    <rect id="Rectangle_2-14" data-name="Rectangle 2" width="1922" height="6" transform="translate(0 182)"/>
    <rect id="Rectangle_2-15" data-name="Rectangle 2" width="1922" height="6" transform="translate(0 196)"/>
    <rect id="Rectangle_2-16" data-name="Rectangle 2" width="1922" height="6" transform="translate(0 210)"/>
    <rect id="Rectangle_2-17" data-name="Rectangle 2" width="1922" height="6" transform="translate(0 224)"/>
    <rect id="Rectangle_2-18" data-name="Rectangle 2" width="1922" height="6" transform="translate(0 238)"/>
    <rect id="Rectangle_2-19" data-name="Rectangle 2" width="1922" height="6" transform="translate(0 252)"/>
    <rect id="Rectangle_2-20" data-name="Rectangle 2" width="1922" height="6" transform="translate(0 266)"/>
    <rect id="Rectangle_2-21" data-name="Rectangle 2" width="1922" height="6" transform="translate(0 280)"/>
    <rect id="Rectangle_2-22" data-name="Rectangle 2" width="1922" height="6" transform="translate(0 294)"/>
    <rect id="Rectangle_2-23" data-name="Rectangle 2" width="1922" height="6" transform="translate(0 308)"/>
    <rect id="Rectangle_2-24" data-name="Rectangle 2" width="1922" height="6" transform="translate(0 322)"/>
    <rect id="Rectangle_2-25" data-name="Rectangle 2" width="1922" height="6" transform="translate(0 336)"/>
    <rect id="Rectangle_2-26" data-name="Rectangle 2" width="1922" height="6" transform="translate(0 350)"/>
    <rect id="Rectangle_2-27" data-name="Rectangle 2" width="1922" height="6" transform="translate(0 364)"/>
    <rect id="Rectangle_2-28" data-name="Rectangle 2" width="1922" height="6" transform="translate(0 378)"/>
    <rect id="Rectangle_2-29" data-name="Rectangle 2" width="1922" height="6" transform="translate(0 392)"/>
    <rect id="Rectangle_2-30" data-name="Rectangle 2" width="1922" height="6" transform="translate(0 406)"/>
    <rect id="Rectangle_2-31" data-name="Rectangle 2" width="1922" height="6" transform="translate(0 420)"/>
    <rect id="Rectangle_2-32" data-name="Rectangle 2" width="1922" height="6" transform="translate(0 434)"/>
    <rect id="Rectangle_2-33" data-name="Rectangle 2" width="1922" height="6" transform="translate(0 448)"/>
    <rect id="Rectangle_2-34" data-name="Rectangle 2" width="1922" height="6" transform="translate(0 462)"/>
    <rect id="Rectangle_2-35" data-name="Rectangle 2" width="1922" height="6" transform="translate(0 476)"/>
    <rect id="Rectangle_2-36" data-name="Rectangle 2" width="1922" height="6" transform="translate(0 490)"/>
    <rect id="Rectangle_2-37" data-name="Rectangle 2" width="1922" height="6" transform="translate(0 504)"/>
    <rect id="Rectangle_2-38" data-name="Rectangle 2" width="1922" height="6" transform="translate(0 518)"/>
    <rect id="Rectangle_2-39" data-name="Rectangle 2" width="1922" height="6" transform="translate(0 532)"/>
    <rect id="Rectangle_2-40" data-name="Rectangle 2" width="1922" height="6" transform="translate(0 546)"/>
    <rect id="Rectangle_2-41" data-name="Rectangle 2" width="1922" height="6" transform="translate(0 560)"/>
    <rect id="Rectangle_2-42" data-name="Rectangle 2" width="1922" height="6" transform="translate(0 574)"/>
    <rect id="Rectangle_2-43" data-name="Rectangle 2" width="1922" height="6" transform="translate(0 588)"/>
    <rect id="Rectangle_2-44" data-name="Rectangle 2" width="1922" height="6" transform="translate(0 602)"/>
    <rect id="Rectangle_2-45" data-name="Rectangle 2" width="1922" height="6" transform="translate(0 616)"/>
    <rect id="Rectangle_2-46" data-name="Rectangle 2" width="1922" height="6" transform="translate(0 630)"/>
    <rect id="Rectangle_2-47" data-name="Rectangle 2" width="1922" height="6" transform="translate(0 644)"/>
    <rect id="Rectangle_2-48" data-name="Rectangle 2" width="1922" height="6" transform="translate(0 658)"/>
  </g>
  <text x="830" y="590" fill="url(#linear-gradient)" style="font-family: 'Bebas Neue'" font-size="210">Karib</text>
  <g id="wordSir" stroke-linecap="round" fill-rule="evenodd" stroke-width="0.1mm" fill="#DC18D0" 
  style="stroke:#000;stroke-width:0.01mm;fill:#DC18D0;transform:scale(1.6) translate(27%, 36%) rotate(-12deg);">
    <path d="M 60.4 38.6 L 50.2 39 A 213.675 213.675 0 0 1 46.132 38.964 Q 41.11 38.868 38.537 38.513 A 16.719 16.719 0 0 1 37.55 38.35 Q 34.3 37.7 31.75 36.8 A 19.159 19.159 0 0 1 29.986 36.083 Q 29.143 35.687 28.461 35.246 A 9.328 9.328 0 0 1 27.7 34.7 A 9.236 9.236 0 0 1 24.955 31.483 Q 24.06 29.705 24.004 27.496 A 11.715 11.715 0 0 1 24 27.2 A 3.493 3.493 0 0 1 24.128 26.33 Q 24.465 25.034 25.7 23 Q 27.236 20.471 30.771 17.085 A 66.989 66.989 0 0 1 31.55 16.35 A 53.273 53.273 0 0 1 36.725 12.145 A 68.809 68.809 0 0 1 41.45 9.05 Q 45.74 6.476 52.062 4.375 A 93.131 93.131 0 0 1 56.6 3 Q 66 0.4 77 0 A 35.93 35.93 0 0 1 82.051 0.371 A 43.979 43.979 0 0 1 85.25 0.95 A 50.007 50.007 0 0 1 88.302 1.712 Q 90.669 2.387 92.45 3.2 A 13.807 13.807 0 0 1 96.653 6.204 A 16.582 16.582 0 0 1 97.5 7.15 Q 99.7 9.8 99.7 13.3 A 3.65 3.65 0 0 1 99.098 15.215 Q 98.282 16.543 96.359 17.953 A 25.315 25.315 0 0 1 94.3 19.3 A 23.007 23.007 0 0 1 88.193 21.792 Q 83.914 22.9 78.45 22.9 A 108.424 108.424 0 0 1 75.613 22.866 Q 70.096 22.721 68.919 21.959 A 0.57 0.57 0 0 1 68.6 21.5 A 0.752 0.752 0 0 1 68.906 20.972 Q 69.926 20.054 74.35 18.9 Q 80.1 17.4 85.9 15.4 A 24.72 24.72 0 0 0 87.871 14.632 Q 91.7 12.931 91.7 10.9 A 0.817 0.817 0 0 0 91.254 10.204 Q 90.519 9.739 88.573 9.632 A 23.294 23.294 0 0 0 87.3 9.6 A 93.74 93.74 0 0 0 61.522 13.007 A 76.628 76.628 0 0 0 37.5 24.6 A 21.771 21.771 0 0 0 35.981 25.83 Q 34.534 27.124 33.967 28.238 A 3.008 3.008 0 0 0 33.6 29.6 A 1.656 1.656 0 0 0 34.705 30.946 Q 38.394 32.9 54.4 32.9 A 53.452 53.452 0 0 1 60.726 33.309 Q 67.203 34.156 70.29 36.744 A 7.649 7.649 0 0 1 73.1 42.9 A 11.32 11.32 0 0 1 71.15 49.1 Q 68.867 52.644 63.912 55.991 A 43.817 43.817 0 0 1 63.6 56.2 A 69.986 69.986 0 0 1 50.598 62.91 A 89.176 89.176 0 0 1 41.25 66 A 107.276 107.276 0 0 1 28.035 68.759 A 83.725 83.725 0 0 1 17.1 69.6 A 22.798 22.798 0 0 1 10.992 68.726 A 31.637 31.637 0 0 1 5.9 66.8 A 18.126 18.126 0 0 1 3.459 65.422 Q 0 63.062 0 60 A 1.142 1.142 0 0 1 0.677 58.927 Q 1.167 58.673 2.01 58.611 A 6.997 6.997 0 0 1 2.2 58.6 A 195.496 195.496 0 0 0 6.956 58.022 Q 13.414 57.149 16.285 56.191 A 10.517 10.517 0 0 0 17.3 55.8 Q 18.1 55.6 18.6 55.6 Q 18.994 55.6 19.078 55.724 A 0.133 0.133 0 0 1 19.1 55.8 A 0.467 0.467 0 0 1 19.032 56.019 Q 18.865 56.322 18.288 56.797 A 11.14 11.14 0 0 1 17.9 57.1 A 19.039 19.039 0 0 1 16.293 57.878 A 22.337 22.337 0 0 1 15.5 58.2 Q 12.727 59.191 12.701 59.494 A 0.067 0.067 0 0 0 12.7 59.5 A 0.15 0.15 0 0 0 12.803 59.621 Q 13.154 59.8 14.7 59.8 Q 16.572 59.8 23.784 58.399 A 326.464 326.464 0 0 0 24.8 58.2 Q 32.9 56.6 42.15 54.1 Q 51.4 51.6 58.5 47.9 Q 65.283 44.365 65.586 41.105 A 3.288 3.288 0 0 0 65.6 40.8 Q 65.6 38.654 60.652 38.601 A 23.69 23.69 0 0 0 60.4 38.6 Z M 86.073 55.011 A 3.476 3.476 0 0 0 86 55.7 A 1.44 1.44 0 0 0 86.065 56.152 Q 86.279 56.8 87.2 56.8 Q 87.876 56.8 89.485 56.24 A 26.987 26.987 0 0 0 89.6 56.2 A 276.546 276.546 0 0 0 108.931 45 A 9.471 9.471 0 0 1 109.184 44.78 A 13.45 13.45 0 0 1 109.4 44.6 Q 114.9 40.8 120.9 36.4 A 19.884 19.884 0 0 1 119.282 35.17 Q 117.646 33.779 116.955 32.428 A 5.304 5.304 0 0 1 116.8 32.1 A 7.768 7.768 0 0 1 116.676 31.794 Q 116.511 31.358 116.501 31.129 A 0.658 0.658 0 0 1 116.5 31.1 A 4.746 4.746 0 0 1 116.587 30.158 Q 116.695 29.627 116.937 29.235 A 2.098 2.098 0 0 1 117.8 28.45 Q 118.882 27.909 121.07 27.818 A 22.441 22.441 0 0 1 122 27.8 A 2.344 2.344 0 0 1 122.564 27.895 Q 123.835 28.232 127.017 29.77 A 122.561 122.561 0 0 1 128.5 30.5 A 89.255 89.255 0 0 0 130.387 31.418 Q 133.181 32.733 134.555 33.078 A 3.422 3.422 0 0 0 135.35 33.2 Q 136.611 33.2 138.742 32.557 A 30.089 30.089 0 0 0 139.4 32.35 Q 141.775 31.574 143.273 31.506 A 6.171 6.171 0 0 1 143.55 31.5 A 5.433 5.433 0 0 1 144.355 31.555 Q 145.297 31.697 145.8 32.2 Q 148.139 35.287 148.29 36.099 A 0.558 0.558 0 0 1 148.3 36.2 A 1.295 1.295 0 0 1 147.838 37.203 A 1.94 1.94 0 0 1 147.65 37.35 A 357.465 357.465 0 0 0 147.308 37.587 Q 146.523 38.132 144.488 39.548 A 16491.405 16491.405 0 0 0 143.55 40.2 Q 140.1 42.6 136.8 45.1 Q 133.5 47.6 130.6 50.7 Q 127.7 53.8 127.7 55.7 A 0.249 0.249 0 0 0 127.849 55.938 Q 127.973 56 128.2 56 A 8.667 8.667 0 0 0 131.125 55.23 Q 137.895 52.505 155.943 40.132 A 753.193 753.193 0 0 0 164.6 34.1 Q 165.3 34.1 165.3 35.35 A 1.499 1.499 0 0 1 165.023 36.033 Q 163.819 37.978 157.4 43.95 Q 149.5 51.3 139.55 58.35 A 90.007 90.007 0 0 1 135.458 61.097 Q 129.369 64.927 125.914 65.348 A 6.732 6.732 0 0 1 125.1 65.4 A 10.077 10.077 0 0 1 122.33 65.053 Q 119.224 64.163 118.399 60.992 A 10.313 10.313 0 0 1 118.1 58.4 A 11.714 11.714 0 0 1 119.476 52.954 A 15.423 15.423 0 0 1 120.65 51.05 Q 123.2 47.5 131.4 41.5 Q 129.7 41.5 126.8 40.65 A 15.468 15.468 0 0 1 125.5 40.21 Q 124.263 39.724 123.592 39.144 A 2.727 2.727 0 0 1 123.504 39.067 A 765.697 765.697 0 0 0 123.25 39.3 Q 121.4 41 116.2 45.4 Q 111 49.8 106.5 53.4 Q 94.7 62.9 89.1 64.6 A 13.746 13.746 0 0 1 86.484 65.051 A 16.525 16.525 0 0 1 85.2 65.1 Q 79.059 65.1 77.816 59.884 A 12.905 12.905 0 0 1 77.5 56.9 A 8.471 8.471 0 0 1 77.777 54.882 Q 78.289 52.817 79.746 50.009 A 48.835 48.835 0 0 1 81 47.75 A 94.269 94.269 0 0 1 85.001 41.499 A 73.766 73.766 0 0 1 88.2 37.25 A 88.183 88.183 0 0 1 89.5 35.686 Q 92.125 32.606 93.1 32.2 Q 94.9 31.1 97 31.1 Q 99.1 31.1 101 31.9 Q 101.6 32.2 101.6 32.7 A 0.819 0.819 0 0 1 101.535 32.996 Q 101.37 33.417 100.781 34.06 A 10.199 10.199 0 0 1 100.65 34.2 A 169.775 169.775 0 0 0 100.113 34.769 Q 99.213 35.725 97.75 37.3 Q 95.955 39.234 92.548 43.754 A 254.037 254.037 0 0 0 91.95 44.55 Q 88.1 49.7 86.8 53.2 Q 86.241 54.179 86.073 55.011 Z M 112.1 14.2 A 0.714 0.714 0 0 0 111.912 14.029 Q 111.556 13.8 110.8 13.8 A 4.512 4.512 0 0 0 109.789 13.923 Q 107.753 14.392 104.9 16.65 A 14.55 14.55 0 0 0 103.421 17.983 Q 102.596 18.845 102.091 19.72 A 5.515 5.515 0 0 0 101.3 22.5 Q 101.3 23.903 102.282 24.433 A 2.616 2.616 0 0 0 103.1 24.7 A 7.057 7.057 0 0 0 103.559 24.685 Q 105.743 24.543 108.05 23.05 Q 110.6 21.4 111.45 20.45 A 54.506 54.506 0 0 0 111.957 19.876 Q 112.488 19.266 112.9 18.75 Q 113.5 18 113.5 16.95 A 2.011 2.011 0 0 0 113.423 16.421 Q 113.253 15.797 112.705 14.997 A 11.413 11.413 0 0 0 112.1 14.2 Z" vector-effect="non-scaling-stroke"/>
  </g>
</svg>
