<svg id="bg" xmlns="http://www.w3.org/2000/svg" xmlns:xlink="http://www.w3.org/1999/xlink" width="1920" height="1100" 
style="" viewBox="0 0 1920 1100">
  <defs>
    <linearGradient id="linear-gradient-bg" x1="0.5" x2="0.5" y2="1.4" gradientUnits="objectBoundingBox">
      <stop offset="0.001" stop-color="#070038"/>
      <stop offset="0.554" stop-color="#7D004D"/>
    </linearGradient>
    <linearGradient id="linear-gradient-2" x1="0.5" x2="0.5" y2="0.699" gradientUnits="objectBoundingBox">
      <stop offset="0.001" stop-color="#F5FF6E"/>
      <stop offset="0.954" stop-color="#FF44A5" stop-opacity="0.999"/>
    </linearGradient>
    <linearGradient id="linear-gradient-3" x1="0.5" x2="0.5" y1="0.1" y2="0.95" gradientUnits="objectBoundingBox">
      <stop offset="0.1" stop-color="#0E83B5" stop-opacity="1"/>
      <stop offset="0.2" stop-color="#14B9FF" stop-opacity="1"/>
      <stop offset="0.4" stop-color="#FFFFFF" stop-opacity="1"/>
      <stop offset="0.7" stop-color="#F200FF" stop-opacity="1"/>
    </linearGradient>
    <linearGradient id="linear-gradient-4" x1="0.1" x2="2.5" y2="0.99" gradientUnits="objectBoundingBox">
      <stop offset="0"/>
      <stop offset="0" stop-color="#DB15CF"/>
    </linearGradient>
  </defs>
  <rect id="Rectangle_bg_grid" data-name="Rectangle bg Grid" width="1920" height="500" fill="black" transform="translate(0 500)"/>
  <rect id="Rectangle_bg" data-name="Rectangle bg" width="1920" height="600" fill="url(#linear-gradient-bg)"/>
  <circle id="Ellipse_1" data-name="Ellipse 1" cx="0" cy="98" r="238" transform="translate(1038 215)" fill="url(#linear-gradient-2)"
  style="filter: drop-shadow(0 0 58px #F00090); overflow: visible;"
  />
  <g id="Group_1" data-name="Group 1" opacity="0.95" fill="#7D004D" style="filter: drop-shadow(0 0 98px #F00090); overflow: visible;">
    <rect id="Rectangle_2-1" data-name="Rectangle 2" width="476" height="6" transform="translate(800 315)"/>
    <rect id="Rectangle_2-2" data-name="Rectangle 2" width="467" height="6" transform="translate(805 360)"/>
    <rect id="Rectangle_2-3" data-name="Rectangle 2" width="438" height="7" transform="translate(819 405)"/>
    <rect id="Rectangle_2-4" data-name="Rectangle 2" width="387" height="9" transform="translate(845 450)"/>
    <rect id="Rectangle_2-5" data-name="Rectangle 2" width="303" height="10" transform="translate(887 495)"/>
  </g>
  <g id="Grid" data-name="Group Grid" transform="translate(0,1182) scale(0.155,-0.130)"
  fill="#DC71FF" stroke="none" style="filter: drop-shadow(0 0 78px #F200FF); overflow: visible;">
    <path d="M238 4863 c39 -2 105 -2 145 0 39 1 7 3 -73 3 -80 0 -112 -2 -72 -3z"/>
    <path d="M2383 4863 c15 -2 39 -2 55 0 15 2 2 4 -28 4 -30 0 -43 -2 -27 -4z"/>
    <path d="M6245 4860 c-3 -6 1 -7 9 -4 18 7 21 14 7 14 -6 0 -13 -4 -16 -10z"/>
    <path d="M6530 4866 c0 -2 7 -7 16 -10 8 -3 12 -2 9 4 -6 10 -25 14 -25 6z"/>
    <path d="M10363 4863 c15 -2 39 -2 55 0 15 2 2 4 -28 4 -30 0 -43 -2 -27 -4z"/>
    <path d="M12418 4863 c39 -2 105 -2 145 0 39 1 7 3 -73 3 -80 0 -112 -2 -72 -3z"/>
    <path d="M6314 4770 l-29 -80 -100 0 -99 0 74 77 c75 77 65 71 -40 -26 l-55
    -51 -100 1 c-94 0 -98 1 -72 15 15 8 27 17 27 20 0 3 -16 -4 -36 -15 -40 -24
    -6 -22 -474 -20 -102 1 -194 1 -205 1 -11 0 -146 0 -300 0 -154 0 -291 1 -305
    0 -14 0 -216 -1 -450 -3 l-425 -3 360 -6 c198 -3 349 -7 335 -8 -14 -2 -20 -5
    -15 -8 6 -2 53 2 106 9 114 14 593 12 569 -3 -19 -12 -18 -12 65 3 43 7 132
    11 230 9 148 -3 158 -4 135 -18 -17 -10 -18 -13 -5 -9 63 22 95 25 200 23
    l117 -3 -130 -72 -129 -73 -184 1 -184 0 143 56 c78 31 141 58 139 60 -2 2
    -75 -24 -163 -57 l-159 -60 -278 2 -278 3 231 59 c126 33 228 61 226 63 -2 2
    -120 -25 -263 -61 l-260 -66 -424 1 -424 1 354 61 c195 34 349 63 344 64 -6 2
    -186 -26 -400 -62 l-390 -65 -634 2 -634 3 195 22 c590 66 863 98 845 101 -11
    1 -282 -27 -602 -63 l-581 -65 -964 1 c-530 1 -954 3 -943 5 11 1 313 24 670
    51 358 26 638 49 624 51 -15 2 -213 -11 -440 -28 -805 -60 -945 -70 -1037 -76
    -243 -18 -12 -24 891 -25 854 -1 968 -3 872 -14 -293 -35 -1825 -205 -1839
    -205 -9 0 -16 -4 -16 -10 0 -7 343 -10 1008 -11 554 0 1003 -2 997 -4 -12 -5
    -1978 -335 -1994 -335 -6 0 -11 -7 -11 -15 0 -13 121 -15 1007 -17 953 -3
    1004 -4 943 -19 -36 -9 -487 -123 -1002 -253 -515 -130 -940 -236 -943 -236
    -3 0 -5 -9 -5 -20 0 -20 8 -20 1012 -22 l1013 -3 -70 -27 c-39 -15 -164 -63
    -280 -106 -387 -146 -897 -340 -1260 -477 -198 -76 -372 -142 -387 -147 -22
    -8 -28 -16 -28 -39 l0 -29 991 -2 991 -3 -987 -555 -986 -555 78 -3 78 -3 970
    561 970 560 808 0 c717 0 845 -3 799 -22 -5 -1 -256 -233 -558 -513 -302 -281
    -567 -528 -589 -548 l-40 -36 85 0 85 0 575 559 575 560 814 0 c770 0 813 -1
    806 -17 -4 -10 -94 -252 -201 -538 -107 -286 -199 -530 -204 -542 -9 -23 -9
    -23 74 -23 l85 0 164 502 c91 277 173 529 183 561 l18 57 816 0 816 0 18 -57
    c10 -32 92 -284 183 -560 l164 -503 85 0 c47 0 83 3 81 8 -3 4 -95 248 -205
    542 -110 294 -203 543 -207 553 -7 16 36 17 806 17 l814 0 575 -560 575 -559
    85 0 85 0 -63 57 c-261 238 -1131 1049 -1131 1055 -1 4 362 7 807 7 l807 0
    970 -560 970 -561 78 3 78 3 -986 555 -987 555 991 3 991 2 0 29 c0 23 -6 31
    -27 39 -16 5 -309 117 -653 247 -344 130 -724 274 -845 320 -121 46 -280 106
    -354 134 -74 28 -137 53 -139 56 -3 3 450 5 1006 5 1005 0 1012 0 1012 20 0
    11 -2 20 -5 20 -3 0 -428 106 -943 236 -515 130 -966 244 -1002 253 -61 15
    -10 16 943 19 886 2 1007 4 1007 17 0 8 -5 15 -11 15 -17 0 -1982 330 -1994
    335 -5 2 443 4 998 4 664 1 1007 4 1007 11 0 6 -7 10 -16 10 -14 0 -1546 170
    -1839 205 -96 11 18 13 873 14 902 1 1133 7 890 25 -92 6 -232 16 -1037 76
    -227 17 -425 30 -440 28 -14 -2 267 -25 624 -51 358 -27 659 -50 670 -51 11
    -2 -413 -4 -943 -5 l-964 -1 -581 65 c-320 36 -591 64 -602 63 -18 -3 255 -35
    845 -101 l195 -22 -634 -3 -634 -2 -390 65 c-214 36 -394 64 -400 62 -5 -1
    149 -30 344 -64 l354 -61 -425 -1 -425 -1 -273 69 c-151 38 -276 72 -279 75
    -12 12 482 11 576 -1 53 -7 101 -11 106 -9 6 3 -1 6 -15 8 -14 1 137 5 335 8
    l360 6 -425 3 c-234 2 -436 3 -450 3 -14 1 -151 0 -305 0 -154 0 -289 0 -300
    0 -11 0 -103 0 -205 -1 -468 -2 -434 -4 -474 20 -20 11 -36 18 -36 15 0 -3 12
    -12 28 -20 25 -14 21 -15 -73 -15 l-100 -1 -55 51 c-105 97 -115 103 -40 26
    l74 -77 -99 0 -100 0 -29 80 c-16 45 -30 79 -33 77 -2 -3 8 -37 22 -78 14 -40
    25 -74 25 -76 0 -2 -45 -3 -100 -3 -55 0 -100 1 -100 3 0 2 11 36 25 76 14 41
    24 75 22 78 -3 2 -17 -32 -33 -77z m1639 -171 l248 -64 -278 -3 -278 -2 -159
    60 c-88 33 -161 59 -163 57 -2 -2 61 -29 139 -60 l143 -56 -184 0 -184 -1
    -111 62 c-61 34 -120 67 -130 74 -16 11 35 13 279 13 164 0 300 2 302 4 7 7
    121 -18 376 -84z m-1978 6 l-80 -74 -155 -1 -155 0 130 75 130 74 105 0 105 0
    -80 -74z m277 0 l-27 -75 -155 0 -155 1 78 74 79 75 103 0 104 0 -27 -75z
    m276 7 c12 -38 22 -71 22 -75 0 -4 -67 -7 -150 -7 -82 0 -150 3 -150 7 0 4 10
    37 22 75 l22 68 106 0 106 0 22 -68z m279 -7 l78 -74 -155 -1 -155 0 -27 75
    -27 75 104 0 103 0 79 -75z m278 0 l130 -75 -155 0 -155 1 -80 74 -80 74 105
    0 105 0 130 -74z m-3705 -110 c-41 -7 -331 -56 -644 -109 l-569 -96 -976 1
    -976 1 245 29 c135 15 324 37 420 48 96 12 375 43 620 71 245 27 472 54 505
    59 33 5 373 8 755 9 600 0 685 -2 620 -13z m635 -95 l-430 -110 -650 1 -650 1
    160 28 c88 16 243 43 345 60 102 17 309 53 460 80 l275 48 460 0 460 1 -430
    -109z m1074 106 c-2 -2 -130 -51 -284 -110 l-280 -106 -430 1 c-366 1 -423 3
    -385 14 25 7 189 49 365 95 176 45 340 88 365 95 31 9 138 13 349 14 167 0
    302 -1 300 -3z m430 0 c-2 -2 -89 -51 -193 -110 l-188 -106 -279 2 -279 3 273
    106 272 107 199 1 c110 1 197 -1 195 -3z m269 -74 c-46 -44 -99 -93 -120 -111
    l-36 -31 -226 2 -227 3 183 107 183 106 163 1 163 1 -83 -78z m388 -32 l-41
    -110 -234 0 -233 0 113 110 114 109 161 1 161 0 -41 -110z m421 5 c18 -55 33
    -103 33 -107 0 -5 -103 -8 -230 -8 -126 0 -230 3 -230 6 0 7 61 197 67 207 2
    4 77 6 166 5 l161 -3 33 -100z m422 -5 l113 -110 -233 0 -234 0 -41 110 -41
    110 161 0 161 -1 114 -109z m415 3 l187 -108 -227 -3 -226 -2 -36 31 c-21 18
    -74 67 -120 111 l-83 78 159 0 160 0 186 -107z m508 0 l278 -108 -279 -3 -279
    -2 -188 106 c-104 59 -191 108 -193 110 -2 2 83 4 189 4 l194 0 278 -107z
    m431 88 c39 -11 207 -54 372 -97 165 -42 320 -82 345 -89 38 -11 -19 -13 -385
    -14 l-430 -1 -280 106 c-154 59 -282 108 -284 110 -2 2 129 4 293 4 261 0 305
    -2 369 -19z m1345 -61 c257 -44 541 -93 632 -109 l165 -29 -650 -1 -650 -1
    -430 110 -430 109 448 0 448 1 467 -80z m1317 42 c273 -33 759 -89 1254 -144
    l295 -33 -975 -3 -974 -2 -570 96 c-313 53 -604 102 -645 109 -65 11 24 13
    640 11 l715 -2 260 -32z m-7556 -206 c-2 -2 -302 -79 -666 -170 l-661 -166
    -984 1 c-540 1 -972 4 -958 6 14 2 450 78 970 168 l945 163 679 1 c374 1 677
    -1 675 -3z m941 -13 c-30 -13 -445 -172 -757 -289 l-91 -34 -652 2 -652 3 124
    31 c195 50 693 179 938 243 l225 59 450 0 c414 0 447 -1 415 -15z m667 11 c-3
    -3 -137 -80 -298 -170 l-292 -164 -423 2 -424 3 428 167 427 166 294 1 c162 1
    292 -2 288 -5z m503 -18 c-14 -13 -96 -89 -183 -170 l-158 -146 -351 0 -352 0
    294 170 295 170 240 0 240 0 -25 -24z m530 15 c0 -4 -27 -80 -59 -167 l-59
    -159 -352 -3 -352 -2 173 169 174 170 238 1 c130 0 237 -4 237 -9z m571 -148
    c28 -87 54 -164 57 -170 3 -10 -71 -13 -348 -13 -277 0 -351 3 -348 13 3 6 29
    83 57 170 l53 157 238 0 238 0 53 -157z m638 -14 l173 -169 -352 2 -352 3 -59
    159 c-32 87 -59 163 -59 167 0 5 107 9 238 9 l237 -1 174 -170z m631 1 l294
    -170 -352 0 -351 0 -158 146 c-87 81 -169 157 -183 170 l-25 24 240 0 240 0
    295 -170z m757 3 l433 -168 -424 -3 -423 -2 -292 164 c-161 90 -295 167 -298
    170 -4 3 124 6 282 6 l289 0 433 -167z m751 106 c130 -34 365 -95 522 -135
    157 -41 343 -89 413 -106 l129 -33 -652 -3 -652 -2 -91 34 c-312 117 -727 276
    -757 289 -32 14 0 15 408 16 l442 1 238 -61z m2091 -95 c498 -86 940 -162 981
    -169 64 -11 -68 -13 -908 -14 l-984 -1 -661 166 c-364 91 -664 168 -666 170
    -2 2 296 4 664 4 l668 0 906 -156z m-8094 -223 c-31 -13 -429 -164 -870 -331
    -220 -83 -411 -155 -425 -160 -16 -7 -384 -9 -1010 -8 l-984 3 89 22 c50 13
    169 43 265 68 96 25 272 71 390 101 118 30 265 68 325 84 61 16 218 57 350 91
    132 34 305 78 385 99 l145 38 680 1 c374 0 671 -4 660 -8z m960 0 c-6 -5 -207
    -119 -449 -255 l-438 -246 -641 2 -641 3 400 154 c219 85 512 198 649 252
    l250 98 440 0 c250 1 435 -3 430 -8z m760 -20 c-17 -16 -140 -131 -274 -255
    l-244 -226 -526 0 c-317 0 -520 4 -511 10 8 5 206 119 440 254 l425 246 360 0
    360 0 -30 -29z m768 -63 c-19 -51 -62 -166 -95 -255 l-60 -163 -527 0 -526 1
    260 254 260 254 361 1 362 0 -35 -92z m892 -163 l81 -250 -263 -3 c-145 -1
    -381 -1 -526 0 l-263 3 78 240 c43 132 80 246 83 253 3 10 82 12 366 10 l362
    -3 82 -250z m950 0 l260 -254 -526 -1 -527 0 -60 163 c-33 89 -76 204 -95 255
    l-35 92 362 0 361 -1 260 -254z m935 9 c234 -135 432 -249 440 -254 9 -6 -194
    -10 -511 -10 l-526 0 -244 226 c-134 124 -257 239 -274 255 l-30 29 360 0 360
    0 425 -246z m802 132 c161 -62 455 -176 652 -252 l360 -139 -641 -3 -641 -2
    -438 246 c-242 136 -443 250 -448 255 -6 5 178 9 426 9 l437 0 293 -114z
    m1367 53 c130 -33 296 -76 369 -95 283 -73 405 -105 612 -158 118 -30 294 -76
    390 -101 96 -25 215 -55 265 -68 l89 -22 -984 -3 c-626 -1 -994 1 -1010 8 -14
    5 -205 77 -425 160 -441 167 -839 318 -870 331 -11 4 283 8 654 8 l674 1 236
    -61z m-7454 -498 c-6 -5 -311 -178 -679 -385 l-668 -376 -967 2 c-913 3 -964
    4 -921 20 44 16 1670 646 1840 713 l85 34 660 0 c396 1 655 -3 650 -8z m1165
    -5 c-8 -8 -195 -181 -415 -385 l-400 -371 -790 0 c-496 0 -784 4 -775 10 8 5
    305 178 660 384 l645 374 545 1 c469 1 542 -1 530 -13z m1167 2 c-2 -7 -67
    -181 -143 -385 l-139 -373 -795 0 -795 0 30 28 c17 16 195 189 397 385 l367
    357 542 0 c429 0 540 -3 536 -12z m1290 -368 c67 -206 123 -378 123 -382 0 -5
    -355 -8 -790 -8 -434 0 -790 3 -790 6 0 8 241 747 247 757 2 4 248 6 545 5
    l542 -3 123 -375z m1401 23 c202 -196 380 -369 397 -385 l30 -28 -795 0 -795
    0 -139 373 c-76 204 -141 378 -143 385 -4 9 107 12 536 12 l542 0 367 -357z
    m1423 -9 c349 -201 648 -374 664 -385 30 -18 20 -19 -760 -19 l-790 0 -400
    371 c-220 204 -407 377 -415 385 -12 12 59 14 527 14 l540 0 634 -366z m1101
    237 c1253 -486 1558 -605 1598 -619 43 -16 -9 -17 -921 -20 l-967 -2 -668 376
    c-368 207 -673 380 -678 385 -6 5 251 9 647 9 l656 0 333 -129z"/>
    <path d="M7280 4660 c8 -5 20 -10 25 -10 6 0 3 5 -5 10 -8 5 -19 10 -25 10 -5 0 -3 -5 5 -10z"/>
    <path d="M128 4793 c39 -2 105 -2 145 0 39 1 7 3 -73 3 -80 0 -112 -2 -72 -3z"/>
    <path d="M2263 4793 c26 -2 67 -2 90 0 23 2 2 3 -48 3 -49 0 -68 -1 -42 -3z"/>
    <path d="M3658 4793 c18 -2 45 -2 60 0 15 2 0 4 -33 4 -33 0 -45 -2 -27 -4z"/>
    <path d="M4578 4793 c12 -2 32 -2 45 0 12 2 2 4 -23 4 -25 0 -35 -2 -22 -4z"/>
    <path d="M5188 4793 c6 -2 18 -2 25 0 6 3 1 5 -13 5 -14 0 -19 -2 -12 -5z"/>
    <path d="M5598 4793 c7 -3 16 -2 19 1 4 3 -2 6 -13 5 -11 0 -14 -3 -6 -6z"/>
    <path d="M6020 4790 c-8 -5 -10 -10 -5 -10 6 0 17 5 25 10 8 5 11 10 5 10 -5 0 -17 -5 -25 -10z"/>
    <path d="M6760 4790 c8 -5 20 -10 25 -10 6 0 3 5 -5 10 -8 5 -19 10 -25 10 -5 0 -3 -5 5 -10z"/>
    <path d="M7188 4793 c7 -3 16 -2 19 1 4 3 -2 6 -13 5 -11 0 -14 -3 -6 -6z"/>
    <path d="M7588 4793 c6 -2 18 -2 25 0 6 3 1 5 -13 5 -14 0 -19 -2 -12 -5z"/>
    <path d="M8178 4793 c12 -2 32 -2 45 0 12 2 2 4 -23 4 -25 0 -35 -2 -22 -4z"/>
    <path d="M9088 4793 c18 -2 45 -2 60 0 15 2 0 4 -33 4 -33 0 -45 -2 -27 -4z"/>
    <path d="M10453 4793 c26 -2 67 -2 90 0 23 2 2 3 -48 3 -49 0 -68 -1 -42 -3z"/>
    <path d="M12528 4793 c39 -2 105 -2 145 0 39 1 7 3 -73 3 -80 0 -112 -2 -72 -3z"/>
    <path d="M1983 4783 c26 -2 68 -2 95 0 26 2 4 3 -48 3 -52 0 -74 -1 -47 -3z"/>
    <path d="M3478 4783 c18 -2 45 -2 60 0 15 2 0 4 -33 4 -33 0 -45 -2 -27 -4z"/>
    <path d="M4458 4783 c12 -2 32 -2 45 0 12 2 2 4 -23 4 -25 0 -35 -2 -22 -4z"/>
    <path d="M5113 4783 c9 -2 23 -2 30 0 6 3 -1 5 -18 5 -16 0 -22 -2 -12 -5z"/>
    <path d="M5538 4783 c6 -2 18 -2 25 0 6 3 1 5 -13 5 -14 0 -19 -2 -12 -5z"/>
    <path d="M5828 4783 c7 -3 16 -2 19 1 4 3 -2 6 -13 5 -11 0 -14 -3 -6 -6z"/>
    <path d="M6958 4783 c7 -3 16 -2 19 1 4 3 -2 6 -13 5 -11 0 -14 -3 -6 -6z"/>
    <path d="M7238 4783 c6 -2 18 -2 25 0 6 3 1 5 -13 5 -14 0 -19 -2 -12 -5z"/>
    <path d="M7663 4783 c9 -2 23 -2 30 0 6 3 -1 5 -18 5 -16 0 -22 -2 -12 -5z"/>
    <path d="M8298 4783 c12 -2 32 -2 45 0 12 2 2 4 -23 4 -25 0 -35 -2 -22 -4z"/>
    <path d="M9268 4783 c18 -2 45 -2 60 0 15 2 0 4 -33 4 -33 0 -45 -2 -27 -4z"/>
    <path d="M10723 4783 c26 -2 68 -2 95 0 26 2 4 3 -48 3 -52 0 -74 -1 -47 -3z"/>
    <path d="M1623 4763 c9 -2 25 -2 35 0 9 3 1 5 -18 5 -19 0 -27 -2 -17 -5z"/>
    <path d="M3238 4763 c7 -3 16 -2 19 1 4 3 -2 6 -13 5 -11 0 -14 -3 -6 -6z"/>
    <path d="M4298 4763 c7 -3 16 -2 19 1 4 3 -2 6 -13 5 -11 0 -14 -3 -6 -6z"/>
    <path d="M8488 4763 c7 -3 16 -2 19 1 4 3 -2 6 -13 5 -11 0 -14 -3 -6 -6z"/>
    <path d="M9548 4763 c7 -3 16 -2 19 1 4 3 -2 6 -13 5 -11 0 -14 -3 -6 -6z"/>
    <path d="M11143 4763 c9 -2 25 -2 35 0 9 3 1 5 -18 5 -19 0 -27 -2 -17 -5z"/>
    <path d="M1473 4753 c9 -2 25 -2 35 0 9 3 1 5 -18 5 -19 0 -27 -2 -17 -5z"/>
    <path d="M3128 4753 c6 -2 18 -2 25 0 6 3 1 5 -13 5 -14 0 -19 -2 -12 -5z"/>
    <path d="M9648 4753 c6 -2 18 -2 25 0 6 3 1 5 -13 5 -14 0 -19 -2 -12 -5z"/>
    <path d="M11293 4753 c9 -2 25 -2 35 0 9 3 1 5 -18 5 -19 0 -27 -2 -17 -5z"/>
    <path d="M1223 4743 c15 -2 37 -2 50 0 12 2 0 4 -28 4 -27 0 -38 -2 -22 -4z"/>
    <path d="M2968 4743 c6 -2 18 -2 25 0 6 3 1 5 -13 5 -14 0 -19 -2 -12 -5z"/>
    <path d="M4118 4743 c6 -2 18 -2 25 0 6 3 1 5 -13 5 -14 0 -19 -2 -12 -5z"/>
    <path d="M8658 4743 c6 -2 18 -2 25 0 6 3 1 5 -13 5 -14 0 -19 -2 -12 -5z"/>
    <path d="M9803 4743 c9 -2 23 -2 30 0 6 3 -1 5 -18 5 -16 0 -22 -2 -12 -5z"/>
    <path d="M11533 4743 c15 -2 37 -2 50 0 12 2 0 4 -28 4 -27 0 -38 -2 -22 -4z"/>
    <path d="M1053 4733 c15 -2 37 -2 50 0 12 2 0 4 -28 4 -27 0 -38 -2 -22 -4z"/>
    <path d="M2863 4733 c9 -2 23 -2 30 0 6 3 -1 5 -18 5 -16 0 -22 -2 -12 -5z"/>
    <path d="M4043 4733 c9 -2 23 -2 30 0 6 3 -1 5 -18 5 -16 0 -22 -2 -12 -5z"/>
    <path d="M4838 4733 c7 -3 16 -2 19 1 4 3 -2 6 -13 5 -11 0 -14 -3 -6 -6z"/>
    <path d="M7948 4733 c7 -3 16 -2 19 1 4 3 -2 6 -13 5 -11 0 -14 -3 -6 -6z"/>
    <path d="M8733 4733 c9 -2 23 -2 30 0 6 3 -1 5 -18 5 -16 0 -22 -2 -12 -5z"/>
    <path d="M9913 4733 c9 -2 23 -2 30 0 6 3 -1 5 -18 5 -16 0 -22 -2 -12 -5z"/>
    <path d="M11703 4733 c15 -2 37 -2 50 0 12 2 0 4 -28 4 -27 0 -38 -2 -22 -4z"/>
    <path d="M813 4723 c15 -2 39 -2 55 0 15 2 2 4 -28 4 -30 0 -43 -2 -27 -4z"/>
    <path d="M2708 4723 c12 -2 30 -2 40 0 9 3 -1 5 -23 4 -22 0 -30 -2 -17 -4z"/>
    <path d="M3943 4723 c9 -2 23 -2 30 0 6 3 -1 5 -18 5 -16 0 -22 -2 -12 -5z"/>
    <path d="M4768 4723 c7 -3 16 -2 19 1 4 3 -2 6 -13 5 -11 0 -14 -3 -6 -6z"/>
    <path d="M8018 4723 c7 -3 16 -2 19 1 4 3 -2 6 -13 5 -11 0 -14 -3 -6 -6z"/>
    <path d="M8833 4723 c9 -2 23 -2 30 0 6 3 -1 5 -18 5 -16 0 -22 -2 -12 -5z"/>
    <path d="M10058 4723 c12 -2 30 -2 40 0 9 3 -1 5 -23 4 -22 0 -30 -2 -17 -4z"/>
    <path d="M11933 4723 c15 -2 39 -2 55 0 15 2 2 4 -28 4 -30 0 -43 -2 -27 -4z"/>
    <path d="M627 4713 c18 -2 50 -2 70 0 21 2 7 4 -32 4 -38 0 -55 -2 -38 -4z"/>
    <path d="M2588 4713 c12 -2 30 -2 40 0 9 3 -1 5 -23 4 -22 0 -30 -2 -17 -4z"/>
    <path d="M3863 4713 c9 -2 23 -2 30 0 6 3 -1 5 -18 5 -16 0 -22 -2 -12 -5z"/>
    <path d="M4718 4713 c7 -3 16 -2 19 1 4 3 -2 6 -13 5 -11 0 -14 -3 -6 -6z"/>
    <path d="M5278 4713 c7 -3 16 -2 19 1 4 3 -2 6 -13 5 -11 0 -14 -3 -6 -6z"/>
    <path d="M7508 4713 c7 -3 16 -2 19 1 4 3 -2 6 -13 5 -11 0 -14 -3 -6 -6z"/>
    <path d="M8068 4713 c7 -3 16 -2 19 1 4 3 -2 6 -13 5 -11 0 -14 -3 -6 -6z"/>
    <path d="M8913 4713 c9 -2 23 -2 30 0 6 3 -1 5 -18 5 -16 0 -22 -2 -12 -5z"/>
    <path d="M10178 4713 c12 -2 30 -2 40 0 9 3 -1 5 -23 4 -22 0 -30 -2 -17 -4z"/>
    <path d="M12097 4713 c18 -2 50 -2 70 0 21 2 7 4 -32 4 -38 0 -55 -2 -38 -4z"/>
    <path d="M418 4703 c23 -2 59 -2 80 0 20 2 1 4 -43 4 -44 0 -61 -2 -37 -4z"/>
    <path d="M2433 4703 c15 -2 37 -2 50 0 12 2 0 4 -28 4 -27 0 -38 -2 -22 -4z"/>
    <path d="M3763 4703 c9 -2 25 -2 35 0 9 3 1 5 -18 5 -19 0 -27 -2 -17 -5z"/>
    <path d="M4648 4703 c6 -2 18 -2 25 0 6 3 1 5 -13 5 -14 0 -19 -2 -12 -5z"/>
    <path d="M8128 4703 c6 -2 18 -2 25 0 6 3 1 5 -13 5 -14 0 -19 -2 -12 -5z"/>
    <path d="M9003 4703 c9 -2 25 -2 35 0 9 3 1 5 -18 5 -19 0 -27 -2 -17 -5z"/>
    <path d="M10323 4703 c15 -2 37 -2 50 0 12 2 0 4 -28 4 -27 0 -38 -2 -22 -4z"/>
    <path d="M12308 4703 c23 -2 59 -2 80 0 20 2 1 4 -43 4 -44 0 -61 -2 -37 -4z"/>
    <path d="M110 4690 l-115 -6 145 -2 c80 -1 152 3 160 8 16 11 11 11 -190 0z"/>
    <path d="M2309 4696 c-4 -4 -449 -8 -990 -9 l-984 -2 810 -5 c446 -3 794 -8
    775 -11 -19 -3 8 -4 60 -2 52 3 160 8 239 11 199 10 1243 2 1206 -9 -24 -7
    -20 -7 18 -4 26 3 97 8 158 11 60 4 112 12 116 17 4 7 -6 8 -28 3 -41 -8
    -1265 -8 -1329 0 -25 3 -48 3 -51 0z"/>
    <path d="M9083 4693 c4 -5 56 -13 116 -17 61 -3 132 -8 158 -11 38 -3 42 -3
    18 4 -37 11 1007 19 1206 9 79 -3 187 -8 239 -11 52 -2 79 -1 60 2 -19 3 330
    8 775 11 l810 5 -980 4 c-539 2 -998 4 -1020 4 -22 0 -328 -1 -680 -2 -352 -1
    -655 1 -674 5 -22 5 -32 4 -28 -3z"/>
    <path d="M12500 4690 c14 -9 309 -15 299 -6 -2 2 -74 6 -159 9 -100 4 -150 3
    -140 -3z"/>
    <path d="M1665 4650 l-70 -6 60 -1 c33 0 92 3 130 7 l70 7 -60 0 c-33 0 -91
    -3 -130 -7z"/>
    <path d="M11015 4650 c39 -4 97 -7 130 -7 l60 0 -75 7 c-41 4 -100 7 -130 7
    -53 0 -53 0 15 -7z"/>
  </g>

  <g id="mountains" data-name="Group 2" opacity="1" fill="#2b1165" style="filter: drop-shadow(0 0 5px #F7CCFF); overflow: visible;">
    <polygon id="Triangle-2" points="5,135 45,-25 225,135" fill="#0C174C" stroke="#D67BF3" stroke-width="4" transform="translate(105 485)"/>
    <polygon id="Triangle-1" points="5,135 115,-85 225,135" fill="#0C174C" stroke="#D67BF3" stroke-width="4" transform="translate(-40 495)"/>
    <polygon id="Triangle-3" points="5,135 145,5 345,135" fill="#0C174C" stroke="#D67BF3" stroke-width="4" transform="translate(130 495)"/>
    <polygon id="Triangle-5" points="5,135 115,-35 225,135" fill="#0C174C" stroke="#D67BF3" stroke-width="4" transform="translate(350 495)"/>
    <polygon id="Triangle-4" points="-15,135 115,-95 245,135" fill="#0C174C" stroke="#D67BF3" stroke-width="4" transform="translate(260 495)"/>
    <polygon id="Triangle-7" points="-45,135 125,-85 285,135" fill="#0C174C" stroke="#D67BF3" stroke-width="4" transform="translate(510 495)"/>
    <polygon id="Triangle-6" points="5,135 115,-115 225,135" fill="#0C174C" stroke="#D67BF3" stroke-width="4" transform="translate(430 495)"/>
    <polygon id="Triangle-9" points="-45,135 125,-65 225,135" fill="#0C174C" stroke="#D67BF3" stroke-width="4" transform="translate(800 495)"/>
    <polygon id="Triangle-12" points="19,135 145,-65 245,135" fill="#0C174C" stroke="#D67BF3" stroke-width="4" transform="translate(1089 495)"/>
    <polygon id="Triangle-11" points="5,135 115,-95 225,135" fill="#0C174C" stroke="#D67BF3" stroke-width="4" transform="translate(1000 495)"/>
    <polygon id="Triangle-10" points="5,135 165,-15 305,135" fill="#0C174C" stroke="#D67BF3" stroke-width="4" transform="translate(850 495)"/>
    <polygon id="Triangle-8" points="-25,135 155,-195 335,135" fill="#0C174C" stroke="#D67BF3" stroke-width="4" transform="translate(600 495)"/>
    <polygon id="Triangle-14" points="-15,135 145,-95 255,135" fill="#0C174C" stroke="#D67BF3" stroke-width="4" transform="translate(1310 495)"/>
    <polygon id="Triangle-13" points="35,135 125,-65 285,135" fill="#0C174C" stroke="#D67BF3" stroke-width="4" transform="translate(1180 495)"/>
    <polygon id="Triangle-16" points="-25,135 145,-125 275,135" fill="#0C174C" stroke="#D67BF3" stroke-width="4" transform="translate(1510 495)"/>
    <polygon id="Triangle-15" points="-25,135 175,-85 365,135" fill="#0C174C" stroke="#D67BF3" stroke-width="4" transform="translate(1370 495)"/>
    <polygon id="Triangle-18" points="-5,135 135,-45 295,135" fill="#0C174C" stroke="#D67BF3" stroke-width="4" transform="translate(1720 495)"/>
    <polygon id="Triangle-17" points="15,135 105,-35 295,135" fill="#0C174C" stroke="#D67BF3" stroke-width="4" transform="translate(1630 495)"/>
  </g>

  <rect id="Rectangle_3" data-name="Rectangle 3" width="1920" height="53" transform="translate(0 618)" fill="#F7CCFF"
  style="filter: drop-shadow(0 0 18px #D67BF3) blur(8px); overflow: visible;"/>
  <g id="wordKarib" stroke-linecap="round" fill-rule="evenodd" font-size="9pt" stroke="#000" stroke-width="0.35mm" fill="url(#linear-gradient-3)" 
  style="stroke:#000;stroke-width:0.55mm;filter: drop-shadow(0 0 2px #F200FF); overflow: visible;fill:url(#linear-gradient-3);transform:scale(2.5) translate(320px, 280px);">
    <path d="M 0 70 L 0 0 L 11 0 L 11 29.5 L 25 0 L 36 0 L 22.9 25.7 L 36.2 70 L 24.7 70 L 15.4 38.8 L 11 47.7 L 11 70 L 0 70 Z" id="0" vector-effect="non-scaling-stroke"/>
    <path d="M 38.5 70 L 49.9 0 L 64.8 0 L 76.2 70 L 65.2 70 L 63.2 56.1 L 63.2 56.3 L 50.7 56.3 L 48.7 70 L 38.5 70 Z M 52 46.8 L 61.9 46.8 L 57 12.2 L 56.8 12.2 L 52 46.8 Z" id="1" vector-effect="non-scaling-stroke"/>
    <path d="M 81.5 70 L 81.5 0 L 97.8 0 A 29.066 29.066 0 0 1 102.217 0.313 Q 104.544 0.672 106.391 1.442 A 11.489 11.489 0 0 1 110.2 3.95 Q 114.1 7.9 114.1 16.1 L 114.1 20.4 A 25.259 25.259 0 0 1 113.678 25.211 Q 113.163 27.857 112.02 29.806 A 10.176 10.176 0 0 1 106.9 34.2 L 106.9 34.4 A 9.225 9.225 0 0 1 110.134 36.075 A 8.631 8.631 0 0 1 112.55 39.3 A 16.431 16.431 0 0 1 113.555 42.427 Q 114.2 45.325 114.2 49.2 L 114.2 61.5 Q 114.2 64.434 114.391 66.268 A 21.93 21.93 0 0 0 114.4 66.35 A 12.134 12.134 0 0 0 115.351 69.888 A 13.583 13.583 0 0 0 115.4 70 L 104.2 70 A 18.152 18.152 0 0 1 103.675 68.251 A 13.945 13.945 0 0 1 103.4 66.8 A 14.955 14.955 0 0 1 103.314 65.917 Q 103.205 64.413 103.2 61.666 A 147.151 147.151 0 0 1 103.2 61.4 L 103.2 48.6 Q 103.2 43.8 101.65 41.9 A 4.556 4.556 0 0 0 99.783 40.569 Q 99.015 40.258 98.045 40.117 A 12.174 12.174 0 0 0 96.3 40 L 92.5 40 L 92.5 70 L 81.5 70 Z M 92.5 30 L 96.5 30 Q 99.8 30 101.45 28.3 Q 103.1 26.6 103.1 22.6 L 103.1 17.2 Q 103.1 13.816 102.029 12.097 A 4.26 4.26 0 0 0 101.75 11.7 A 4.239 4.239 0 0 0 99.6 10.281 Q 98.88 10.062 98.003 10.014 A 9.216 9.216 0 0 0 97.5 10 L 92.5 10 L 92.5 30 Z" id="2" vector-effect="non-scaling-stroke"/>
    <path d="M 121.8 70 L 121.8 0 L 132.8 0 L 132.8 70 L 121.8 70 Z" id="3" vector-effect="non-scaling-stroke"/><path d="M 141 70 L 141 0 L 157.6 0 A 29.066 29.066 0 0 1 162.017 0.313 Q 164.344 0.672 166.191 1.442 A 11.489 11.489 0 0 1 170 3.95 Q 173.9 7.9 173.9 16.1 L 173.9 18.9 A 27.503 27.503 0 0 1 173.693 22.377 Q 173.459 24.213 172.959 25.745 A 13.238 13.238 0 0 1 172.15 27.7 Q 170.4 31.1 166.8 32.6 L 166.8 32.8 A 11.171 11.171 0 0 1 174.138 40.695 Q 174.785 42.855 174.946 45.547 A 30.947 30.947 0 0 1 175 47.4 L 175 53.4 Q 175 59.264 172.773 63.11 A 12.751 12.751 0 0 1 170.75 65.75 A 13.54 13.54 0 0 1 165.12 69.067 Q 162.981 69.738 160.393 69.927 A 28.779 28.779 0 0 1 158.3 70 L 141 70 Z M 152 60 L 158.3 60 A 8.64 8.64 0 0 0 159.89 59.864 Q 161.616 59.54 162.6 58.45 A 4.349 4.349 0 0 0 163.397 57.119 Q 163.905 55.835 163.985 53.865 A 18.793 18.793 0 0 0 164 53.1 L 164 47 Q 164 42.2 162.35 40.35 Q 161.095 38.943 158.595 38.606 A 12.724 12.724 0 0 0 156.9 38.5 L 152 38.5 L 152 60 Z M 152 28.5 L 156.3 28.5 Q 159.6 28.5 161.25 26.8 Q 162.9 25.1 162.9 21.1 L 162.9 17.2 Q 162.9 13.816 161.829 12.097 A 4.26 4.26 0 0 0 161.55 11.7 A 4.239 4.239 0 0 0 159.4 10.281 Q 158.68 10.062 157.803 10.014 A 9.216 9.216 0 0 0 157.3 10 L 152 10 L 152 28.5 Z" id="4" vector-effect="non-scaling-stroke"/>
  </g>
  <g id="wordSir" stroke-linecap="round" stroke-width="0.1mm" fill="url(#linear-gradient-4)" 
  style="stroke:#000;stroke-width:0.07mm;filter: drop-shadow(0 0 4px #F200FF); overflow: visible;fill:url(#linear-gradient-4);transform:scale(1.6) translate(530px, 375px) rotate(-19deg) skew(-30deg, 10deg);">
    <path d="M 60.4 38.6 L 50.2 39 A 213.675 213.675 0 0 1 46.132 38.964 Q 41.11 38.868 38.537 38.513 A 16.719 16.719 0 0 1 37.55 38.35 Q 34.3 37.7 31.75 36.8 A 19.159 19.159 0 0 1 29.986 36.083 Q 29.143 35.687 28.461 35.246 A 9.328 9.328 0 0 1 27.7 34.7 A 9.236 9.236 0 0 1 24.955 31.483 Q 24.06 29.705 24.004 27.496 A 11.715 11.715 0 0 1 24 27.2 A 3.493 3.493 0 0 1 24.128 26.33 Q 24.465 25.034 25.7 23 Q 27.236 20.471 30.771 17.085 A 66.989 66.989 0 0 1 31.55 16.35 A 53.273 53.273 0 0 1 36.725 12.145 A 68.809 68.809 0 0 1 41.45 9.05 Q 45.74 6.476 52.062 4.375 A 93.131 93.131 0 0 1 56.6 3 Q 66 0.4 77 0 A 35.93 35.93 0 0 1 82.051 0.371 A 43.979 43.979 0 0 1 85.25 0.95 A 50.007 50.007 0 0 1 88.302 1.712 Q 90.669 2.387 92.45 3.2 A 13.807 13.807 0 0 1 96.653 6.204 A 16.582 16.582 0 0 1 97.5 7.15 Q 99.7 9.8 99.7 13.3 A 3.65 3.65 0 0 1 99.098 15.215 Q 98.282 16.543 96.359 17.953 A 25.315 25.315 0 0 1 94.3 19.3 A 23.007 23.007 0 0 1 88.193 21.792 Q 83.914 22.9 78.45 22.9 A 108.424 108.424 0 0 1 75.613 22.866 Q 70.096 22.721 68.919 21.959 A 0.57 0.57 0 0 1 68.6 21.5 A 0.752 0.752 0 0 1 68.906 20.972 Q 69.926 20.054 74.35 18.9 Q 80.1 17.4 85.9 15.4 A 24.72 24.72 0 0 0 87.871 14.632 Q 91.7 12.931 91.7 10.9 A 0.817 0.817 0 0 0 91.254 10.204 Q 90.519 9.739 88.573 9.632 A 23.294 23.294 0 0 0 87.3 9.6 A 93.74 93.74 0 0 0 61.522 13.007 A 76.628 76.628 0 0 0 37.5 24.6 A 21.771 21.771 0 0 0 35.981 25.83 Q 34.534 27.124 33.967 28.238 A 3.008 3.008 0 0 0 33.6 29.6 A 1.656 1.656 0 0 0 34.705 30.946 Q 38.394 32.9 54.4 32.9 A 53.452 53.452 0 0 1 60.726 33.309 Q 67.203 34.156 70.29 36.744 A 7.649 7.649 0 0 1 73.1 42.9 A 11.32 11.32 0 0 1 71.15 49.1 Q 68.867 52.644 63.912 55.991 A 43.817 43.817 0 0 1 63.6 56.2 A 69.986 69.986 0 0 1 50.598 62.91 A 89.176 89.176 0 0 1 41.25 66 A 107.276 107.276 0 0 1 28.035 68.759 A 83.725 83.725 0 0 1 17.1 69.6 A 22.798 22.798 0 0 1 10.992 68.726 A 31.637 31.637 0 0 1 5.9 66.8 A 18.126 18.126 0 0 1 3.459 65.422 Q 0 63.062 0 60 A 1.142 1.142 0 0 1 0.677 58.927 Q 1.167 58.673 2.01 58.611 A 6.997 6.997 0 0 1 2.2 58.6 A 195.496 195.496 0 0 0 6.956 58.022 Q 13.414 57.149 16.285 56.191 A 10.517 10.517 0 0 0 17.3 55.8 Q 18.1 55.6 18.6 55.6 Q 18.994 55.6 19.078 55.724 A 0.133 0.133 0 0 1 19.1 55.8 A 0.467 0.467 0 0 1 19.032 56.019 Q 18.865 56.322 18.288 56.797 A 11.14 11.14 0 0 1 17.9 57.1 A 19.039 19.039 0 0 1 16.293 57.878 A 22.337 22.337 0 0 1 15.5 58.2 Q 12.727 59.191 12.701 59.494 A 0.067 0.067 0 0 0 12.7 59.5 A 0.15 0.15 0 0 0 12.803 59.621 Q 13.154 59.8 14.7 59.8 Q 16.572 59.8 23.784 58.399 A 326.464 326.464 0 0 0 24.8 58.2 Q 32.9 56.6 42.15 54.1 Q 51.4 51.6 58.5 47.9 Q 65.283 44.365 65.586 41.105 A 3.288 3.288 0 0 0 65.6 40.8 Q 65.6 38.654 60.652 38.601 A 23.69 23.69 0 0 0 60.4 38.6 Z M 86.073 55.011 A 3.476 3.476 0 0 0 86 55.7 A 1.44 1.44 0 0 0 86.065 56.152 Q 86.279 56.8 87.2 56.8 Q 87.876 56.8 89.485 56.24 A 26.987 26.987 0 0 0 89.6 56.2 A 276.546 276.546 0 0 0 108.931 45 A 9.471 9.471 0 0 1 109.184 44.78 A 13.45 13.45 0 0 1 109.4 44.6 Q 114.9 40.8 120.9 36.4 A 19.884 19.884 0 0 1 119.282 35.17 Q 117.646 33.779 116.955 32.428 A 5.304 5.304 0 0 1 116.8 32.1 A 7.768 7.768 0 0 1 116.676 31.794 Q 116.511 31.358 116.501 31.129 A 0.658 0.658 0 0 1 116.5 31.1 A 4.746 4.746 0 0 1 116.587 30.158 Q 116.695 29.627 116.937 29.235 A 2.098 2.098 0 0 1 117.8 28.45 Q 118.882 27.909 121.07 27.818 A 22.441 22.441 0 0 1 122 27.8 A 2.344 2.344 0 0 1 122.564 27.895 Q 123.835 28.232 127.017 29.77 A 122.561 122.561 0 0 1 128.5 30.5 A 89.255 89.255 0 0 0 130.387 31.418 Q 133.181 32.733 134.555 33.078 A 3.422 3.422 0 0 0 135.35 33.2 Q 136.611 33.2 138.742 32.557 A 30.089 30.089 0 0 0 139.4 32.35 Q 141.775 31.574 143.273 31.506 A 6.171 6.171 0 0 1 143.55 31.5 A 5.433 5.433 0 0 1 144.355 31.555 Q 145.297 31.697 145.8 32.2 Q 148.139 35.287 148.29 36.099 A 0.558 0.558 0 0 1 148.3 36.2 A 1.295 1.295 0 0 1 147.838 37.203 A 1.94 1.94 0 0 1 147.65 37.35 A 357.465 357.465 0 0 0 147.308 37.587 Q 146.523 38.132 144.488 39.548 A 16491.405 16491.405 0 0 0 143.55 40.2 Q 140.1 42.6 136.8 45.1 Q 133.5 47.6 130.6 50.7 Q 127.7 53.8 127.7 55.7 A 0.249 0.249 0 0 0 127.849 55.938 Q 127.973 56 128.2 56 A 8.667 8.667 0 0 0 131.125 55.23 Q 137.895 52.505 155.943 40.132 A 753.193 753.193 0 0 0 164.6 34.1 Q 165.3 34.1 165.3 35.35 A 1.499 1.499 0 0 1 165.023 36.033 Q 163.819 37.978 157.4 43.95 Q 149.5 51.3 139.55 58.35 A 90.007 90.007 0 0 1 135.458 61.097 Q 129.369 64.927 125.914 65.348 A 6.732 6.732 0 0 1 125.1 65.4 A 10.077 10.077 0 0 1 122.33 65.053 Q 119.224 64.163 118.399 60.992 A 10.313 10.313 0 0 1 118.1 58.4 A 11.714 11.714 0 0 1 119.476 52.954 A 15.423 15.423 0 0 1 120.65 51.05 Q 123.2 47.5 131.4 41.5 Q 129.7 41.5 126.8 40.65 A 15.468 15.468 0 0 1 125.5 40.21 Q 124.263 39.724 123.592 39.144 A 2.727 2.727 0 0 1 123.504 39.067 A 765.697 765.697 0 0 0 123.25 39.3 Q 121.4 41 116.2 45.4 Q 111 49.8 106.5 53.4 Q 94.7 62.9 89.1 64.6 A 13.746 13.746 0 0 1 86.484 65.051 A 16.525 16.525 0 0 1 85.2 65.1 Q 79.059 65.1 77.816 59.884 A 12.905 12.905 0 0 1 77.5 56.9 A 8.471 8.471 0 0 1 77.777 54.882 Q 78.289 52.817 79.746 50.009 A 48.835 48.835 0 0 1 81 47.75 A 94.269 94.269 0 0 1 85.001 41.499 A 73.766 73.766 0 0 1 88.2 37.25 A 88.183 88.183 0 0 1 89.5 35.686 Q 92.125 32.606 93.1 32.2 Q 94.9 31.1 97 31.1 Q 99.1 31.1 101 31.9 Q 101.6 32.2 101.6 32.7 A 0.819 0.819 0 0 1 101.535 32.996 Q 101.37 33.417 100.781 34.06 A 10.199 10.199 0 0 1 100.65 34.2 A 169.775 169.775 0 0 0 100.113 34.769 Q 99.213 35.725 97.75 37.3 Q 95.955 39.234 92.548 43.754 A 254.037 254.037 0 0 0 91.95 44.55 Q 88.1 49.7 86.8 53.2 Q 86.241 54.179 86.073 55.011 Z M 112.1 14.2 A 0.714 0.714 0 0 0 111.912 14.029 Q 111.556 13.8 110.8 13.8 A 4.512 4.512 0 0 0 109.789 13.923 Q 107.753 14.392 104.9 16.65 A 14.55 14.55 0 0 0 103.421 17.983 Q 102.596 18.845 102.091 19.72 A 5.515 5.515 0 0 0 101.3 22.5 Q 101.3 23.903 102.282 24.433 A 2.616 2.616 0 0 0 103.1 24.7 A 7.057 7.057 0 0 0 103.559 24.685 Q 105.743 24.543 108.05 23.05 Q 110.6 21.4 111.45 20.45 A 54.506 54.506 0 0 0 111.957 19.876 Q 112.488 19.266 112.9 18.75 Q 113.5 18 113.5 16.95 A 2.011 2.011 0 0 0 113.423 16.421 Q 113.253 15.797 112.705 14.997 A 11.413 11.413 0 0 0 112.1 14.2 Z" vector-effect="non-scaling-stroke"/>
  </g>
</svg>
