<svg xmlns="http://www.w3.org/2000/svg" viewBox="0 0 1920 1100">
  <defs>
    <linearGradient id="a" x1=".5" x2=".5" y2="1.4" gradientUnits="objectBoundingBox">
      <stop offset=".001" stop-color="#070038"/>
      <stop offset=".554" stop-color="#7D004D"/>
    </linearGradient>
    <linearGradient id="b" x1=".5" x2=".5" y2=".699" gradientUnits="objectBoundingBox">
      <stop offset=".001" stop-color="#F5FF6E"/>
      <stop offset=".954" stop-color="#FF44A5" stop-opacity=".999"/>
    </linearGradient>
    <linearGradient id="c" x1=".5" x2=".5" y1=".1" y2=".95" gradientUnits="objectBoundingBox">
      <stop offset=".1" stop-color="#0E83B5"/>
      <stop offset=".2" stop-color="#14B9FF"/>
      <stop offset=".4" stop-color="#FFF"/>
      <stop offset=".7" stop-color="#F200FF"/>
    </linearGradient>
    <linearGradient id="d" x1=".1" x2="2.5" y2=".99" gradientUnits="objectBoundingBox">
      <stop offset="0"/>
      <stop offset="0" stop-color="#DB15CF"/>
    </linearGradient>
  </defs>
  <path d="M0 500h1920v500H0z" data-name="Rectangle bg Grid"/>
  <path fill="url(#a)" d="M0 0h1920v600H0z" data-name="Rectangle bg"/>
  <circle cy="98" r="238" fill="url(#b)" data-name="Ellipse 1" style="filter:drop-shadow(0 0 58px #f00090);overflow:visible" transform="translate(1038 215)"/>
  <g data-name="Group 1" opacity=".95" style="filter:drop-shadow(0 0 98px #f00090);overflow:visible">
    <path fill="#2b1165" d="M800 315h476v6H800zm5 45h467v6H805zm14 45h438v7H819zm26 45h387v9H845zm42 45h303v10H887z" data-name="Rectangle 2"/>
  </g>
  <g fill="#DC71FF" data-name="Group Grid" style="filter:drop-shadow(0 0 78px #f200ff);overflow:visible" transform="matrix(.155 0 0 -.13 0 1182)">
    <path d="M238 4863c39-2 105-2 145 0 39 1 7 3-73 3s-112-2-72-3zm2145 0c15-2 39-2 55 0 15 2 2 4-28 4s-43-2-27-4zm3862-3c-3-6 1-7 9-4 18 7 21 14 7 14-6 0-13-4-16-10zm285 6c0-2 7-7 16-10 8-3 12-2 9 4-6 10-25 14-25 6zm3833-3c15-2 39-2 55 0 15 2 2 4-28 4s-43-2-27-4zm2055 0c39-2 105-2 145 0 39 1 7 3-73 3s-112-2-72-3zm-6104-93-29-80h-199l74 77c75 77 65 71-40-26l-55-51-100 1c-94 0-98 1-72 15 15 8 27 17 27 20s-16-4-36-15c-40-24-6-22-474-20-102 1-194 1-205 1h-300c-154 0-291 1-305 0-14 0-216-1-450-3l-425-3 360-6c198-3 349-7 335-8-14-2-20-5-15-8 6-2 53 2 106 9 114 14 593 12 569-3-19-12-18-12 65 3 43 7 132 11 230 9 148-3 158-4 135-18-17-10-18-13-5-9 63 22 95 25 200 23l117-3-130-72-129-73-184 1h-184l143 56c78 31 141 58 139 60s-75-24-163-57l-159-60-278 2-278 3 231 59c126 33 228 61 226 63s-120-25-263-61l-260-66-424 1-424 1 354 61c195 34 349 63 344 64-6 2-186-26-400-62l-390-65-634 2-634 3 195 22c590 66 863 98 845 101-11 1-282-27-602-63l-581-65-964 1c-530 1-954 3-943 5 11 1 313 24 670 51 358 26 638 49 624 51-15 2-213-11-440-28-805-60-945-70-1037-76-243-18-12-24 891-25 854-1 968-3 872-14-293-35-1825-205-1839-205-9 0-16-4-16-10 0-7 343-10 1008-11 554 0 1003-2 997-4-12-5-1978-335-1994-335-6 0-11-7-11-15 0-13 121-15 1007-17 953-3 1004-4 943-19-36-9-487-123-1002-253S8 3390 5 3390s-5-9-5-20c0-20 8-20 1012-22l1013-3-70-27c-39-15-164-63-280-106-387-146-897-340-1260-477-198-76-372-142-387-147-22-8-28-16-28-39v-29l991-2 991-3-987-555L9 1405l78-3 78-3 970 561 970 560h808c717 0 845-3 799-22-5-1-256-233-558-513-302-281-567-528-589-548l-40-36h170l575 559 575 560h814c770 0 813-1 806-17-4-10-94-252-201-538s-199-530-204-542c-9-23-9-23 74-23h85l164 502c91 277 173 529 183 561l18 57h1632l18-57c10-32 92-284 183-560l164-503h85c47 0 83 3 81 8-3 4-95 248-205 542s-203 543-207 553c-7 16 36 17 806 17h814l575-560 575-559h170l-63 57c-261 238-1131 1049-1131 1055-1 4 362 7 807 7h807l970-560 970-561 78 3 78 3-986 555-987 555 991 3 991 2v29c0 23-6 31-27 39-16 5-309 117-653 247s-724 274-845 320-280 106-354 134-137 53-139 56c-3 3 450 5 1006 5 1005 0 1012 0 1012 20 0 11-2 20-5 20s-428 106-943 236-966 244-1002 253c-61 15-10 16 943 19 886 2 1007 4 1007 17 0 8-5 15-11 15-17 0-1982 330-1994 335-5 2 443 4 998 4 664 1 1007 4 1007 11 0 6-7 10-16 10-14 0-1546 170-1839 205-96 11 18 13 873 14 902 1 1133 7 890 25-92 6-232 16-1037 76-227 17-425 30-440 28-14-2 267-25 624-51 358-27 659-50 670-51 11-2-413-4-943-5l-964-1-581 65c-320 36-591 64-602 63-18-3 255-35 845-101l195-22-634-3-634-2-390 65c-214 36-394 64-400 62-5-1 149-30 344-64l354-61-425-1-425-1-273 69c-151 38-276 72-279 75-12 12 482 11 576-1 53-7 101-11 106-9 6 3-1 6-15 8-14 1 137 5 335 8l360 6-425 3c-234 2-436 3-450 3-14 1-151 0-305 0h-300c-11 0-103 0-205-1-468-2-434-4-474 20-20 11-36 18-36 15s12-12 28-20c25-14 21-15-73-15l-100-1-55 51c-105 97-115 103-40 26l74-77h-199l-29 80c-16 45-30 79-33 77-2-3 8-37 22-78 14-40 25-74 25-76s-45-3-100-3-100 1-100 3 11 36 25 76c14 41 24 75 22 78-3 2-17-32-33-77zm1639-171 248-64-278-3-278-2-159 60c-88 33-161 59-163 57s61-29 139-60l143-56h-184l-184-1-111 62c-61 34-120 67-130 74-16 11 35 13 279 13 164 0 300 2 302 4 7 7 121-18 376-84zm-1978 6-80-74-155-1h-155l130 75 130 74h210l-80-74zm277 0-27-75h-155l-155 1 78 74 79 75h207l-27-75zm276 7c12-38 22-71 22-75s-67-7-150-7c-82 0-150 3-150 7s10 37 22 75l22 68h212l22-68zm279-7 78-74-155-1h-155l-27 75-27 75h207l79-75zm278 0 130-75h-155l-155 1-80 74-80 74h210l130-74zm-3705-110c-41-7-331-56-644-109l-569-96-976 1-976 1 245 29c135 15 324 37 420 48 96 12 375 43 620 71 245 27 472 54 505 59s373 8 755 9c600 0 685-2 620-13zm635-95-430-110-650 1-650 1 160 28c88 16 243 43 345 60s309 53 460 80l275 48h460l460 1-430-109zm1074 106c-2-2-130-51-284-110l-280-106-430 1c-366 1-423 3-385 14 25 7 189 49 365 95 176 45 340 88 365 95 31 9 138 13 349 14 167 0 302-1 300-3zm430 0c-2-2-89-51-193-110l-188-106-279 2-279 3 273 106 272 107 199 1c110 1 197-1 195-3zm269-74c-46-44-99-93-120-111l-36-31-226 2-227 3 183 107 183 106 163 1 163 1-83-78zm388-32-41-110h-467l113 110 114 109 161 1h161l-41-110zm421 5c18-55 33-103 33-107 0-5-103-8-230-8-126 0-230 3-230 6 0 7 61 197 67 207 2 4 77 6 166 5l161-3 33-100zm422-5 113-110h-467l-41 110-41 110h161l161-1 114-109zm415 3 187-108-227-3-226-2-36 31c-21 18-74 67-120 111l-83 78h319l186-107zm508 0 278-108-279-3-279-2-188 106c-104 59-191 108-193 110s83 4 189 4h194l278-107zm431 88c39-11 207-54 372-97 165-42 320-82 345-89 38-11-19-13-385-14l-430-1-280 106c-154 59-282 108-284 110s129 4 293 4c261 0 305-2 369-19zm1345-61c257-44 541-93 632-109l165-29-650-1-650-1-430 110-430 109h448l448 1 467-80zm1317 42c273-33 759-89 1254-144l295-33-975-3-974-2-570 96c-313 53-604 102-645 109-65 11 24 13 640 11l715-2 260-32zm-7556-206c-2-2-302-79-666-170l-661-166-984 1c-540 1-972 4-958 6s450 78 970 168l945 163 679 1c374 1 677-1 675-3zm941-13c-30-13-445-172-757-289l-91-34-652 2-652 3 124 31c195 50 693 179 938 243l225 59h450c414 0 447-1 415-15zm667 11c-3-3-137-80-298-170l-292-164-423 2-424 3 428 167 427 166 294 1c162 1 292-2 288-5zm503-18c-14-13-96-89-183-170l-158-146h-703l294 170 295 170h480l-25-24zm530 15c0-4-27-80-59-167l-59-159-352-3-352-2 173 169 174 170 238 1c130 0 237-4 237-9zm571-148c28-87 54-164 57-170 3-10-71-13-348-13s-351 3-348 13c3 6 29 83 57 170l53 157h476l53-157zm638-14 173-169-352 2-352 3-59 159c-32 87-59 163-59 167 0 5 107 9 238 9l237-1 174-170zm631 1 294-170h-703l-158 146c-87 81-169 157-183 170l-25 24h480l295-170zm757 3 433-168-424-3-423-2-292 164c-161 90-295 167-298 170-4 3 124 6 282 6h289l433-167zm751 106c130-34 365-95 522-135 157-41 343-89 413-106l129-33-652-3-652-2-91 34c-312 117-727 276-757 289-32 14 0 15 408 16l442 1 238-61zm2091-95c498-86 940-162 981-169 64-11-68-13-908-14l-984-1-661 166c-364 91-664 168-666 170s296 4 664 4h668l906-156zm-8094-223c-31-13-429-164-870-331-220-83-411-155-425-160-16-7-384-9-1010-8l-984 3 89 22c50 13 169 43 265 68s272 71 390 101 265 68 325 84c61 16 218 57 350 91s305 78 385 99l145 38 680 1c374 0 671-4 660-8zm960 0c-6-5-207-119-449-255l-438-246-641 2-641 3 400 154c219 85 512 198 649 252l250 98h440c250 1 435-3 430-8zm760-20c-17-16-140-131-274-255l-244-226h-526c-317 0-520 4-511 10 8 5 206 119 440 254l425 246h720l-30-29zm768-63c-19-51-62-166-95-255l-60-163h-527l-526 1 260 254 260 254 361 1h362l-35-92zm892-163 81-250-263-3c-145-1-381-1-526 0l-263 3 78 240c43 132 80 246 83 253 3 10 82 12 366 10l362-3 82-250zm950 0 260-254-526-1h-527l-60 163c-33 89-76 204-95 255l-35 92h362l361-1 260-254zm935 9c234-135 432-249 440-254 9-6-194-10-511-10h-526l-244 226c-134 124-257 239-274 255l-30 29h720l425-246zm802 132c161-62 455-176 652-252l360-139-641-3-641-2-438 246c-242 136-443 250-448 255-6 5 178 9 426 9h437l293-114zm1367 53c130-33 296-76 369-95 283-73 405-105 612-158 118-30 294-76 390-101s215-55 265-68l89-22-984-3c-626-1-994 1-1010 8-14 5-205 77-425 160-441 167-839 318-870 331-11 4 283 8 654 8l674 1 236-61zm-7454-498c-6-5-311-178-679-385l-668-376-967 2c-913 3-964 4-921 20 44 16 1670 646 1840 713l85 34h660c396 1 655-3 650-8zm1165-5c-8-8-195-181-415-385l-400-371h-790c-496 0-784 4-775 10 8 5 305 178 660 384l645 374 545 1c469 1 542-1 530-13zm1167 2c-2-7-67-181-143-385l-139-373H3905l30 28c17 16 195 189 397 385l367 357h542c429 0 540-3 536-12zm1290-368c67-206 123-378 123-382 0-5-355-8-790-8-434 0-790 3-790 6 0 8 241 747 247 757 2 4 248 6 545 5l542-3 123-375zm1401 23c202-196 380-369 397-385l30-28H7305l-139 373c-76 204-141 378-143 385-4 9 107 12 536 12h542l367-357zm1423-9c349-201 648-374 664-385 30-18 20-19-760-19h-790l-400 371c-220 204-407 377-415 385-12 12 59 14 527 14h540l634-366zm1101 237c1253-486 1558-605 1598-619 43-16-9-17-921-20l-967-2-668 376c-368 207-673 380-678 385-6 5 251 9 647 9h656l333-129z"/>
    <path d="M7280 4660c8-5 20-10 25-10 6 0 3 5-5 10s-19 10-25 10c-5 0-3-5 5-10zM128 4793c39-2 105-2 145 0 39 1 7 3-73 3s-112-2-72-3zm2135 0c26-2 67-2 90 0s2 3-48 3c-49 0-68-1-42-3zm1395 0c18-2 45-2 60 0s0 4-33 4-45-2-27-4zm920 0c12-2 32-2 45 0 12 2 2 4-23 4s-35-2-22-4zm610 0c6-2 18-2 25 0 6 3 1 5-13 5s-19-2-12-5zm410 0c7-3 16-2 19 1 4 3-2 6-13 5-11 0-14-3-6-6zm422-3c-8-5-10-10-5-10 6 0 17 5 25 10s11 10 5 10c-5 0-17-5-25-10zm740 0c8-5 20-10 25-10 6 0 3 5-5 10s-19 10-25 10c-5 0-3-5 5-10zm428 3c7-3 16-2 19 1 4 3-2 6-13 5-11 0-14-3-6-6zm400 0c6-2 18-2 25 0 6 3 1 5-13 5s-19-2-12-5zm590 0c12-2 32-2 45 0 12 2 2 4-23 4s-35-2-22-4zm910 0c18-2 45-2 60 0s0 4-33 4-45-2-27-4zm1365 0c26-2 67-2 90 0s2 3-48 3c-49 0-68-1-42-3zm2075 0c39-2 105-2 145 0 39 1 7 3-73 3s-112-2-72-3zm-10545-10c26-2 68-2 95 0 26 2 4 3-48 3s-74-1-47-3zm1495 0c18-2 45-2 60 0s0 4-33 4-45-2-27-4zm980 0c12-2 32-2 45 0 12 2 2 4-23 4s-35-2-22-4zm655 0c9-2 23-2 30 0 6 3-1 5-18 5-16 0-22-2-12-5zm425 0c6-2 18-2 25 0 6 3 1 5-13 5s-19-2-12-5zm290 0c7-3 16-2 19 1 4 3-2 6-13 5-11 0-14-3-6-6zm1130 0c7-3 16-2 19 1 4 3-2 6-13 5-11 0-14-3-6-6zm280 0c6-2 18-2 25 0 6 3 1 5-13 5s-19-2-12-5zm425 0c9-2 23-2 30 0 6 3-1 5-18 5-16 0-22-2-12-5zm635 0c12-2 32-2 45 0 12 2 2 4-23 4s-35-2-22-4zm970 0c18-2 45-2 60 0s0 4-33 4-45-2-27-4zm1455 0c26-2 68-2 95 0 26 2 4 3-48 3s-74-1-47-3zm-9100-20c9-2 25-2 35 0 9 3 1 5-18 5s-27-2-17-5zm1615 0c7-3 16-2 19 1 4 3-2 6-13 5-11 0-14-3-6-6zm1060 0c7-3 16-2 19 1 4 3-2 6-13 5-11 0-14-3-6-6zm4190 0c7-3 16-2 19 1 4 3-2 6-13 5-11 0-14-3-6-6zm1060 0c7-3 16-2 19 1 4 3-2 6-13 5-11 0-14-3-6-6zm1595 0c9-2 25-2 35 0 9 3 1 5-18 5s-27-2-17-5zm-9670-10c9-2 25-2 35 0 9 3 1 5-18 5s-27-2-17-5zm1655 0c6-2 18-2 25 0 6 3 1 5-13 5s-19-2-12-5zm6520 0c6-2 18-2 25 0 6 3 1 5-13 5s-19-2-12-5zm1645 0c9-2 25-2 35 0 9 3 1 5-18 5s-27-2-17-5zm-10070-10c15-2 37-2 50 0 12 2 0 4-28 4-27 0-38-2-22-4zm1745 0c6-2 18-2 25 0 6 3 1 5-13 5s-19-2-12-5zm1150 0c6-2 18-2 25 0 6 3 1 5-13 5s-19-2-12-5zm4540 0c6-2 18-2 25 0 6 3 1 5-13 5s-19-2-12-5zm1145 0c9-2 23-2 30 0 6 3-1 5-18 5-16 0-22-2-12-5zm1730 0c15-2 37-2 50 0 12 2 0 4-28 4-27 0-38-2-22-4zm-10480-10c15-2 37-2 50 0 12 2 0 4-28 4-27 0-38-2-22-4zm1810 0c9-2 23-2 30 0 6 3-1 5-18 5-16 0-22-2-12-5zm1180 0c9-2 23-2 30 0 6 3-1 5-18 5-16 0-22-2-12-5zm795 0c7-3 16-2 19 1 4 3-2 6-13 5-11 0-14-3-6-6zm3110 0c7-3 16-2 19 1 4 3-2 6-13 5-11 0-14-3-6-6zm785 0c9-2 23-2 30 0 6 3-1 5-18 5-16 0-22-2-12-5zm1180 0c9-2 23-2 30 0 6 3-1 5-18 5-16 0-22-2-12-5zm1790 0c15-2 37-2 50 0 12 2 0 4-28 4-27 0-38-2-22-4zM813 4723c15-2 39-2 55 0 15 2 2 4-28 4s-43-2-27-4zm1895 0c12-2 30-2 40 0 9 3-1 5-23 4-22 0-30-2-17-4zm1235 0c9-2 23-2 30 0 6 3-1 5-18 5-16 0-22-2-12-5zm825 0c7-3 16-2 19 1 4 3-2 6-13 5-11 0-14-3-6-6zm3250 0c7-3 16-2 19 1 4 3-2 6-13 5-11 0-14-3-6-6zm815 0c9-2 23-2 30 0 6 3-1 5-18 5-16 0-22-2-12-5zm1225 0c12-2 30-2 40 0 9 3-1 5-23 4-22 0-30-2-17-4zm1875 0c15-2 39-2 55 0 15 2 2 4-28 4s-43-2-27-4zM627 4713c18-2 50-2 70 0 21 2 7 4-32 4-38 0-55-2-38-4zm1961 0c12-2 30-2 40 0 9 3-1 5-23 4-22 0-30-2-17-4zm1275 0c9-2 23-2 30 0 6 3-1 5-18 5-16 0-22-2-12-5zm855 0c7-3 16-2 19 1 4 3-2 6-13 5-11 0-14-3-6-6zm560 0c7-3 16-2 19 1 4 3-2 6-13 5-11 0-14-3-6-6zm2230 0c7-3 16-2 19 1 4 3-2 6-13 5-11 0-14-3-6-6zm560 0c7-3 16-2 19 1 4 3-2 6-13 5-11 0-14-3-6-6zm845 0c9-2 23-2 30 0 6 3-1 5-18 5-16 0-22-2-12-5zm1265 0c12-2 30-2 40 0 9 3-1 5-23 4-22 0-30-2-17-4zm1919 0c18-2 50-2 70 0 21 2 7 4-32 4-38 0-55-2-38-4zM418 4703c23-2 59-2 80 0 20 2 1 4-43 4s-61-2-37-4zm2015 0c15-2 37-2 50 0 12 2 0 4-28 4-27 0-38-2-22-4zm1330 0c9-2 25-2 35 0 9 3 1 5-18 5s-27-2-17-5zm885 0c6-2 18-2 25 0 6 3 1 5-13 5s-19-2-12-5zm3480 0c6-2 18-2 25 0 6 3 1 5-13 5s-19-2-12-5zm875 0c9-2 25-2 35 0 9 3 1 5-18 5s-27-2-17-5zm1320 0c15-2 37-2 50 0 12 2 0 4-28 4-27 0-38-2-22-4zm1985 0c23-2 59-2 80 0 20 2 1 4-43 4s-61-2-37-4zM110 4690l-115-6 145-2c80-1 152 3 160 8 16 11 11 11-190 0zm2199 6c-4-4-449-8-990-9l-984-2 810-5c446-3 794-8 775-11s8-4 60-2c52 3 160 8 239 11 199 10 1243 2 1206-9-24-7-20-7 18-4 26 3 97 8 158 11 60 4 112 12 116 17 4 7-6 8-28 3-41-8-1265-8-1329 0-25 3-48 3-51 0zm6774-3c4-5 56-13 116-17 61-3 132-8 158-11 38-3 42-3 18 4-37 11 1007 19 1206 9 79-3 187-8 239-11 52-2 79-1 60 2s330 8 775 11l810 5-980 4c-539 2-998 4-1020 4s-328-1-680-2-655 1-674 5c-22 5-32 4-28-3zm3417-3c14-9 309-15 299-6-2 2-74 6-159 9-100 4-150 3-140-3zm-10835-40-70-6 60-1c33 0 92 3 130 7l70 7h-60c-33 0-91-3-130-7zm9350 0c39-4 97-7 130-7h60l-75 7c-41 4-100 7-130 7-53 0-53 0 15-7z"/>
  </g>
  <g fill="#0C174C" stroke="#D67BF3" stroke-width="4" data-name="Group 2" style="filter:drop-shadow(0 0 5px #f7ccff);overflow:visible">
    <path d="m110 620 40-160 180 160z"/>
    <path d="M-35 630 75 410l110 220z"/>
    <path d="m135 630 140-130 200 130z"/>
    <path d="m355 630 110-170 110 170z"/>
    <path d="m245 630 130-230 130 230z"/>
    <path d="m465 630 170-220 160 220z"/>
    <path d="m435 630 110-250 110 250zm320 0 170-200 100 200zm353 0 126-200 100 200z"/>
    <path d="m1005 630 110-230 110 230z"/>
    <path d="m855 630 160-150 140 150z"/>
    <path d="m575 630 180-330 180 330zm720 0 160-230 110 230z"/>
    <path d="m1215 630 90-200 160 200zm270 0 170-260 130 260z"/>
    <path d="m1345 630 200-220 190 220z"/>
    <path d="m1715 630 140-180 160 180z"/>
    <path d="m1645 630 90-170 190 170z"/>
  </g>
  <path fill="#F7CCFF" d="M0 0h1920v53H0z" data-name="Rectangle 3" style="filter:drop-shadow(0 0 18px #d67bf3) blur(8px);overflow:visible" transform="translate(0 618)"/>
  <path fill="url(#c)" fill-rule="evenodd" stroke="#000" stroke-linecap="round" stroke-width="1.323" d="M0 70V0h11v29.5L25 0h11L22.9 25.7 36.2 70H24.7l-9.3-31.2-4.4 8.9V70H0Zm38.5 0L49.9 0h14.9l11.4 70h-11l-2-13.9v.2H50.7l-2 13.7H38.5ZM52 46.8h9.9L57 12.2h-.2L52 46.8ZM81.5 70V0h16.3a29.066 29.066 0 0 1 4.417.313q2.327.359 4.174 1.129A11.489 11.489 0 0 1 110.2 3.95q3.9 3.95 3.9 12.15v4.3a25.259 25.259 0 0 1-.422 4.811q-.515 2.646-1.658 4.595a10.176 10.176 0 0 1-5.12 4.394v.2a9.225 9.225 0 0 1 3.234 1.675 8.631 8.631 0 0 1 2.416 3.225 16.431 16.431 0 0 1 1.005 3.127q.645 2.898.645 6.773v12.3q0 2.934.191 4.768a21.93 21.93 0 0 0 .009.082 12.134 12.134 0 0 0 .951 3.538 13.583 13.583 0 0 0 .049.112h-11.2a18.152 18.152 0 0 1-.525-1.749 13.945 13.945 0 0 1-.275-1.451 14.955 14.955 0 0 1-.086-.883q-.109-1.504-.114-4.251a147.151 147.151 0 0 1 0-.266V48.6q0-4.8-1.55-6.7a4.556 4.556 0 0 0-1.867-1.331q-.768-.311-1.738-.452A12.174 12.174 0 0 0 96.3 40h-3.8v30h-11Zm11-40h4q3.3 0 4.95-1.7 1.65-1.7 1.65-5.7v-5.4q0-3.384-1.071-5.103a4.26 4.26 0 0 0-.279-.397 4.239 4.239 0 0 0-2.15-1.419q-.72-.219-1.597-.267A9.216 9.216 0 0 0 97.5 10h-5v20Zm29.3 40V0h11v70h-11Zm19.2 0V0h16.6a29.066 29.066 0 0 1 4.417.313q2.327.359 4.174 1.129A11.489 11.489 0 0 1 170 3.95q3.9 3.95 3.9 12.15v2.8a27.503 27.503 0 0 1-.207 3.477q-.234 1.836-.734 3.368a13.238 13.238 0 0 1-.809 1.955q-1.75 3.4-5.35 4.9v.2a11.171 11.171 0 0 1 7.338 7.895q.647 2.16.808 4.852A30.947 30.947 0 0 1 175 47.4v6q0 5.864-2.227 9.71a12.751 12.751 0 0 1-2.023 2.64 13.54 13.54 0 0 1-5.63 3.317q-2.139.671-4.727.86A28.779 28.779 0 0 1 158.3 70H141Zm11-10h6.3a8.64 8.64 0 0 0 1.59-.136q1.726-.324 2.71-1.414a4.349 4.349 0 0 0 .797-1.331q.508-1.284.588-3.254A18.793 18.793 0 0 0 164 53.1V47q0-4.8-1.65-6.65-1.255-1.407-3.755-1.744a12.724 12.724 0 0 0-1.695-.106H152V60Zm0-31.5h4.3q3.3 0 4.95-1.7 1.65-1.7 1.65-5.7v-3.9q0-3.384-1.071-5.103a4.26 4.26 0 0 0-.279-.397 4.239 4.239 0 0 0-2.15-1.419q-.72-.219-1.597-.267A9.216 9.216 0 0 0 157.3 10H152v18.5Z" font-size="12" style="stroke:#000;stroke-width:.55mm;filter:drop-shadow(0 0 2px #f200ff);overflow:visible;fill:url(#c);transform:scale(2.5) translate(320px,280px)" vector-effect="non-scaling-stroke"/>
  <path fill="url(#d)" stroke-linecap="round" stroke-width=".1mm" d="m60.4 38.6-10.2.4a213.675 213.675 0 0 1-4.068-.036q-5.022-.096-7.595-.451a16.719 16.719 0 0 1-.987-.163q-3.25-.65-5.8-1.55a19.159 19.159 0 0 1-1.764-.717q-.843-.396-1.525-.837a9.328 9.328 0 0 1-.761-.546 9.236 9.236 0 0 1-2.745-3.217q-.895-1.778-.951-3.987A11.715 11.715 0 0 1 24 27.2a3.493 3.493 0 0 1 .128-.87q.337-1.296 1.572-3.33 1.536-2.529 5.071-5.915a66.989 66.989 0 0 1 .779-.735 53.273 53.273 0 0 1 5.175-4.205A68.809 68.809 0 0 1 41.45 9.05q4.29-2.574 10.612-4.675A93.131 93.131 0 0 1 56.6 3Q66 .4 77 0a35.93 35.93 0 0 1 5.051.371A43.979 43.979 0 0 1 85.25.95a50.007 50.007 0 0 1 3.052.762q2.367.675 4.148 1.488a13.807 13.807 0 0 1 4.203 3.004 16.582 16.582 0 0 1 .847.946q2.2 2.65 2.2 6.15a3.65 3.65 0 0 1-.602 1.915q-.816 1.328-2.739 2.738A25.315 25.315 0 0 1 94.3 19.3a23.007 23.007 0 0 1-6.107 2.492Q83.914 22.9 78.45 22.9a108.424 108.424 0 0 1-2.837-.034q-5.517-.145-6.694-.907a.57.57 0 0 1-.319-.459.752.752 0 0 1 .306-.528q1.02-.918 5.444-2.072 5.75-1.5 11.55-3.5a24.72 24.72 0 0 0 1.971-.768Q91.7 12.931 91.7 10.9a.817.817 0 0 0-.446-.696q-.735-.465-2.681-.572A23.294 23.294 0 0 0 87.3 9.6a93.74 93.74 0 0 0-25.778 3.407A76.628 76.628 0 0 0 37.5 24.6a21.771 21.771 0 0 0-1.519 1.23q-1.447 1.294-2.014 2.408A3.008 3.008 0 0 0 33.6 29.6a1.656 1.656 0 0 0 1.105 1.346Q38.394 32.9 54.4 32.9a53.452 53.452 0 0 1 6.326.409q6.477.847 9.564 3.435A7.649 7.649 0 0 1 73.1 42.9a11.32 11.32 0 0 1-1.95 6.2q-2.283 3.544-7.238 6.891a43.817 43.817 0 0 1-.312.209 69.986 69.986 0 0 1-13.002 6.71A89.176 89.176 0 0 1 41.25 66a107.276 107.276 0 0 1-13.215 2.759A83.725 83.725 0 0 1 17.1 69.6a22.798 22.798 0 0 1-6.108-.874A31.637 31.637 0 0 1 5.9 66.8a18.126 18.126 0 0 1-2.441-1.378Q0 63.062 0 60a1.142 1.142 0 0 1 .677-1.073q.49-.254 1.333-.316a6.997 6.997 0 0 1 .19-.011 195.496 195.496 0 0 0 4.756-.578q6.458-.873 9.329-1.831A10.517 10.517 0 0 0 17.3 55.8q.8-.2 1.3-.2.394 0 .478.124a.133.133 0 0 1 .022.076.467.467 0 0 1-.068.219q-.167.303-.744.778a11.14 11.14 0 0 1-.388.303 19.039 19.039 0 0 1-1.607.778 22.337 22.337 0 0 1-.793.322q-2.773.991-2.799 1.294a.067.067 0 0 0-.001.006.15.15 0 0 0 .103.121q.351.179 1.897.179 1.872 0 9.084-1.401A326.464 326.464 0 0 0 24.8 58.2q8.1-1.6 17.35-4.1 9.25-2.5 16.35-6.2 6.783-3.535 7.086-6.795a3.288 3.288 0 0 0 .014-.305q0-2.146-4.948-2.199a23.69 23.69 0 0 0-.252-.001Zm25.673 16.411A3.476 3.476 0 0 0 86 55.7a1.44 1.44 0 0 0 .065.452q.214.648 1.135.648.676 0 2.285-.56a26.987 26.987 0 0 0 .115-.04A276.546 276.546 0 0 0 108.931 45a9.471 9.471 0 0 1 .253-.22 13.45 13.45 0 0 1 .216-.18q5.5-3.8 11.5-8.2a19.884 19.884 0 0 1-1.618-1.23q-1.636-1.391-2.327-2.742a5.304 5.304 0 0 1-.155-.328 7.768 7.768 0 0 1-.124-.306q-.165-.436-.175-.665a.658.658 0 0 1-.001-.029 4.746 4.746 0 0 1 .087-.942q.108-.531.35-.923a2.098 2.098 0 0 1 .863-.785q1.082-.541 3.27-.632a22.441 22.441 0 0 1 .93-.018 2.344 2.344 0 0 1 .564.095q1.271.337 4.453 1.875a122.561 122.561 0 0 1 1.483.73 89.255 89.255 0 0 0 1.887.918q2.794 1.315 4.168 1.66a3.422 3.422 0 0 0 .795.122q1.261 0 3.392-.643a30.089 30.089 0 0 0 .658-.207q2.375-.776 3.873-.844a6.171 6.171 0 0 1 .277-.006 5.433 5.433 0 0 1 .805.055q.942.142 1.445.645 2.339 3.087 2.49 3.899a.558.558 0 0 1 .01.101 1.295 1.295 0 0 1-.462 1.003 1.94 1.94 0 0 1-.188.147 357.465 357.465 0 0 0-.342.237l-2.82 1.961a16491.405 16491.405 0 0 0-.938.652q-3.45 2.4-6.75 4.9-3.3 2.5-6.2 5.6-2.9 3.1-2.9 5a.249.249 0 0 0 .149.238q.124.062.351.062a8.667 8.667 0 0 0 2.925-.77q6.77-2.725 24.818-15.098A753.193 753.193 0 0 0 164.6 34.1q.7 0 .7 1.25a1.499 1.499 0 0 1-.277.683q-1.204 1.945-7.623 7.917-7.9 7.35-17.85 14.4a90.007 90.007 0 0 1-4.092 2.747q-6.089 3.83-9.544 4.251a6.732 6.732 0 0 1-.814.052 10.077 10.077 0 0 1-2.77-.347q-3.106-.89-3.931-4.061a10.313 10.313 0 0 1-.299-2.592 11.714 11.714 0 0 1 1.376-5.446 15.423 15.423 0 0 1 1.174-1.904q2.55-3.55 10.75-9.55-1.7 0-4.6-.85a15.468 15.468 0 0 1-1.3-.44q-1.237-.486-1.908-1.066a2.727 2.727 0 0 1-.088-.077 765.697 765.697 0 0 0-.254.233q-1.85 1.7-7.05 6.1-5.2 4.4-9.7 8-11.8 9.5-17.4 11.2a13.746 13.746 0 0 1-2.616.451 16.525 16.525 0 0 1-1.284.049q-6.141 0-7.384-5.216A12.905 12.905 0 0 1 77.5 56.9a8.471 8.471 0 0 1 .277-2.018q.512-2.065 1.969-4.873A48.835 48.835 0 0 1 81 47.75a94.269 94.269 0 0 1 4.001-6.251A73.766 73.766 0 0 1 88.2 37.25a88.183 88.183 0 0 1 1.3-1.564q2.625-3.08 3.6-3.486 1.8-1.1 3.9-1.1 2.1 0 4 .8.6.3.6.8a.819.819 0 0 1-.065.296q-.165.421-.754 1.064a10.199 10.199 0 0 1-.131.14 169.775 169.775 0 0 0-.537.569q-.9.956-2.363 2.531-1.795 1.934-5.202 6.454a254.037 254.037 0 0 0-.598.796Q88.1 49.7 86.8 53.2q-.559.979-.727 1.811ZM112.1 14.2a.714.714 0 0 0-.188-.171q-.356-.229-1.112-.229a4.512 4.512 0 0 0-1.011.123q-2.036.469-4.889 2.727a14.55 14.55 0 0 0-1.479 1.333q-.825.862-1.33 1.737a5.515 5.515 0 0 0-.791 2.78q0 1.403.982 1.933a2.616 2.616 0 0 0 .818.267 7.057 7.057 0 0 0 .459-.015q2.184-.142 4.491-1.635 2.55-1.65 3.4-2.6a54.506 54.506 0 0 0 .507-.574q.531-.61.943-1.126.6-.75.6-1.8a2.011 2.011 0 0 0-.077-.529q-.17-.624-.718-1.424a11.413 11.413 0 0 0-.605-.797Z" style="stroke:#000;stroke-width:.07mm;filter:drop-shadow(0 0 4px #f200ff);overflow:visible;fill:url(#d);transform:scale(1.6) translate(530px,375px) rotate(-19deg) skew(-30deg,10deg)" vector-effect="non-scaling-stroke"/>
</svg>
